<svg width="1240" height="1187" viewBox="0 0 1240 1187" fill="none" xmlns="http://www.w3.org/2000/svg">
<path fill-rule="evenodd" clip-rule="evenodd" d="M191.774 5.59182C190.992 4.81142 190.992 3.54561 191.767 2.75863C192.161 2.35819 192.555 1.95625 192.948 1.55277C193.718 0.761309 194.984 0.735001 195.78 1.49997C196.577 2.26494 196.603 3.5315 195.833 4.32303C195.422 4.74528 195.01 5.16585 194.598 5.58476C193.822 6.37167 192.556 6.37222 191.774 5.59182ZM175.065 21.1573C174.34 20.3239 174.428 19.0611 175.258 18.3315C177.092 16.7178 178.915 15.0798 180.725 13.4156C181.539 12.6682 182.804 12.7132 183.556 13.5218C184.309 14.3305 184.263 15.5964 183.45 16.344C181.606 18.0393 179.75 19.7073 177.883 21.3495C177.053 22.0791 175.79 21.9907 175.065 21.1573ZM157.404 35.6343C156.727 34.7617 156.885 33.5057 157.755 32.8247C159.683 31.3149 161.605 29.7854 163.519 28.2343C164.377 27.5388 165.636 27.6641 166.336 28.5188C167.036 29.3735 166.91 30.634 166.052 31.3295C164.111 32.9034 162.162 34.4544 160.207 35.9847C159.338 36.6656 158.081 36.5069 157.404 35.6343ZM139.059 49.2626C138.416 48.3642 138.624 47.1152 139.521 46.4702C141.515 45.0357 143.508 43.5867 145.498 42.1212C146.387 41.4661 147.639 41.6516 148.297 42.5388C148.956 43.4259 148.77 44.6788 147.881 45.3339C145.871 46.814 143.86 48.2766 141.848 49.7238C140.951 50.3687 139.702 50.1611 139.059 49.2626ZM120.322 62.3331C119.697 61.4219 119.93 60.1772 120.841 59.5521C122.869 58.1594 124.902 56.7583 126.937 55.3463C127.845 54.7166 129.091 54.9396 129.722 55.8461C130.353 56.7526 130.13 57.9992 129.223 58.6289C127.178 60.0474 125.137 61.4545 123.101 62.8519C122.191 63.4771 120.946 63.2444 120.322 62.3331ZM101.461 75.2186C100.836 74.3082 101.067 73.0631 101.978 72.4386C104.013 71.0438 106.059 69.6467 108.113 68.2456C109.026 67.6232 110.27 67.8586 110.892 68.7712C111.515 69.6839 111.279 70.9281 110.367 71.5505C108.315 72.9501 106.273 74.3443 104.243 75.7357C103.332 76.3601 102.087 76.1291 101.461 75.2186ZM82.7653 88.3615C82.1163 87.4677 82.3145 86.2168 83.2104 85.5708C85.2175 84.1236 87.2427 82.6821 89.2834 81.2436C90.1863 80.6073 91.4337 80.8265 92.0679 81.7308C92.7021 82.6352 92.483 83.8822 91.5802 84.5186C89.5558 85.9455 87.5487 87.3742 85.5609 88.8074C84.6649 89.4534 83.4144 89.2553 82.7653 88.3615ZM64.6317 102.243C63.9336 101.387 64.0613 100.127 64.9216 99.4344C66.8567 97.8763 68.8185 96.3328 70.8043 94.8012C71.679 94.1266 72.9344 94.2954 73.6046 95.1734C74.2748 96.0514 74.1061 97.3061 73.2314 97.9807C71.2779 99.4876 69.3498 101.005 67.4496 102.534C66.5892 103.227 65.3297 103.1 64.6317 102.243ZM47.5624 117.417C46.789 116.629 46.8008 115.362 47.5967 114.596C49.3959 112.865 51.2319 111.158 53.1017 109.474C53.9224 108.735 55.1871 108.812 55.9197 109.639C56.6522 110.465 56.5753 111.729 55.7547 112.468C53.9333 114.109 52.1468 115.769 50.3974 117.452C49.6013 118.218 48.3357 118.206 47.5624 117.417ZM32.2841 134.378C31.4148 133.696 31.2617 132.438 31.9543 131.578C33.5333 129.616 35.16 127.69 36.8312 125.798C37.5624 124.97 38.8281 124.907 39.6476 125.647C40.4671 126.388 40.53 127.652 39.7991 128.48C38.1884 130.305 36.622 132.159 35.1023 134.046C34.4094 134.906 33.1533 135.059 32.2841 134.378ZM19.6768 153.391C18.7084 152.86 18.3527 151.643 18.8984 150.683C20.1529 148.475 21.4643 146.314 22.8294 144.195C23.4276 143.266 24.6703 143.017 25.5902 143.628C26.5102 144.239 26.759 145.48 26.1611 146.409C24.857 148.435 23.6044 150.5 22.4057 152.607C21.8596 153.567 20.6452 153.922 19.6768 153.391ZM10.5103 174.283C9.46361 173.93 8.89957 172.795 9.26812 171.753C10.1227 169.339 11.0384 166.975 12.0126 164.66C12.441 163.641 13.6222 163.182 14.6337 163.626C15.6451 164.07 16.1037 165.249 15.6759 166.267C14.7481 168.476 13.875 170.729 13.0591 173.031C12.69 174.072 11.5571 174.635 10.5103 174.283ZM5.07707 196.423C3.98657 196.247 3.24365 195.22 3.43397 194.132C3.87442 191.614 4.37315 189.146 4.92821 186.725C5.17507 185.649 6.25887 184.992 7.33187 185.254C8.40488 185.516 9.06072 186.598 8.81431 187.675C8.28393 189.992 7.8063 192.356 7.38336 194.769C7.19263 195.857 6.16756 196.599 5.07707 196.423ZM1.2836 213.395C1.35139 212.106 1.4328 210.829 1.52764 209.564C1.61019 208.462 2.58102 207.648 3.68143 207.743C4.78185 207.839 5.59513 208.809 5.5129 209.91C5.42182 211.13 5.34348 212.362 5.27808 213.605C5.21495 214.805 5.15527 216.008 5.09917 217.213C5.04781 218.317 4.11498 219.173 3.01143 219.125C1.90789 219.077 1.05153 218.144 1.10286 217.041C1.15953 215.823 1.21982 214.607 1.2836 213.395ZM2.49755 241.689C1.39299 241.688 0.498334 240.791 0.504174 239.687C0.517109 237.24 0.547705 234.798 0.59482 232.361C0.616175 231.257 1.5324 230.382 2.63668 230.408C3.74095 230.433 4.61511 231.349 4.59379 232.453C4.54729 234.861 4.51706 237.275 4.5042 239.692C4.49833 240.797 3.60212 241.691 2.49755 241.689ZM3.00986 264.249C1.90657 264.302 0.968543 263.451 0.920541 262.347C0.814296 259.905 0.729063 257.46 0.663707 255.016C0.634187 253.912 1.50987 252.997 2.61416 252.972C3.71846 252.947 4.63319 253.822 4.66275 254.927C4.72729 257.337 4.81133 259.747 4.91594 262.155C4.96389 263.258 4.11314 264.196 3.00986 264.249ZM4.74958 286.746C3.65147 286.865 2.66403 286.072 2.55116 284.973C2.30138 282.541 2.07657 280.101 1.87557 277.655C1.78511 276.554 2.6099 275.593 3.71122 275.508C4.81255 275.424 5.77335 276.248 5.86387 277.349C6.06164 279.754 6.2826 282.152 6.52786 284.541C6.64065 285.64 5.8477 286.627 4.74958 286.746ZM7.98397 309.076C6.8977 309.276 5.85406 308.558 5.66165 307.47C5.23598 305.064 4.84012 302.642 4.47283 300.208C4.30805 299.116 5.06727 298.101 6.16054 297.944C7.25381 297.786 8.26712 298.545 8.43199 299.637C8.79186 302.021 9.17931 304.391 9.59548 306.745C9.78777 307.833 9.07023 308.876 7.98397 309.076ZM13.0675 331.058C12.0048 331.359 10.8983 330.742 10.607 329.676C9.96052 327.311 9.35014 324.923 8.77444 322.514C8.5177 321.44 9.19027 320.366 10.2667 320.119C11.3431 319.871 12.4157 320.543 12.6726 321.617C13.2335 323.962 13.8275 326.286 14.4557 328.586C14.7468 329.651 14.1303 330.757 13.0675 331.058ZM20.4532 352.358C19.4344 352.784 18.2614 352.305 17.8468 351.281C16.9256 349.007 16.0481 346.699 15.2127 344.361C14.8411 343.321 15.3963 342.181 16.4403 341.821C17.4844 341.46 18.622 342.015 18.9939 343.055C19.8015 345.314 20.6486 347.542 21.5365 349.736C21.9508 350.759 21.472 351.931 20.4532 352.358ZM30.6885 372.441C29.7482 373.021 28.5148 372.729 27.9494 371.78C26.6868 369.661 25.477 367.496 24.3183 365.289C23.8048 364.311 24.1991 363.107 25.1841 362.607C26.169 362.107 27.3714 362.501 27.8853 363.478C28.9945 365.589 30.1505 367.657 31.3548 369.681C31.9197 370.63 31.6287 371.861 30.6885 372.441ZM44.2687 390.419C43.4588 391.171 42.1919 391.124 41.4559 390.3C39.7962 388.443 38.1984 386.527 36.6607 384.557C35.9812 383.686 36.1594 382.431 37.0418 381.766C37.9242 381.102 39.1767 381.28 39.8567 382.15C41.3128 384.014 42.8232 385.825 44.3893 387.58C45.1247 388.404 45.0785 389.668 44.2687 390.419ZM407.006 391.819C407.006 392.923 406.11 393.818 405.005 393.82C402.701 393.825 400.409 393.842 398.131 393.87C397.027 393.884 396.118 393.002 396.101 391.898C396.084 390.793 396.966 389.884 398.071 389.87C400.37 389.842 402.682 389.825 405.008 389.82C406.112 389.818 407.007 390.714 407.006 391.819ZM428.894 392.182C428.858 393.286 427.934 394.152 426.829 394.119C424.502 394.05 422.187 393.993 419.885 393.948C418.781 393.927 417.9 393.017 417.918 391.913C417.937 390.808 418.847 389.927 419.951 389.949C422.274 389.994 424.611 390.051 426.96 390.121C428.064 390.154 428.93 391.078 428.894 392.182ZM385.146 392.149C385.18 393.253 384.312 394.176 383.208 394.213C380.908 394.29 378.621 394.378 376.347 394.477C375.243 394.525 374.308 393.672 374.257 392.569C374.206 391.465 375.059 390.529 376.162 390.481C378.456 390.382 380.764 390.293 383.085 390.215C384.189 390.177 385.112 391.045 385.146 392.149ZM450.692 393.24C450.621 394.342 449.67 395.177 448.567 395.11C446.249 394.967 443.944 394.837 441.651 394.719C440.548 394.663 439.697 393.725 439.75 392.622C439.803 391.519 440.741 390.667 441.844 390.724C444.159 390.843 446.485 390.974 448.824 391.118C449.927 391.186 450.763 392.137 450.692 393.24ZM363.344 393.156C363.412 394.258 362.573 395.206 361.471 395.277C359.156 395.425 356.856 395.584 354.569 395.752C353.468 395.833 352.507 395.008 352.423 393.907C352.339 392.805 353.164 391.844 354.265 391.763C356.571 391.594 358.891 391.434 361.226 391.284C362.328 391.214 363.277 392.053 363.344 393.156ZM472.447 394.986C472.341 396.086 471.364 396.891 470.264 396.789C467.964 396.574 465.675 396.372 463.398 396.183C462.297 396.091 461.476 395.127 461.564 394.026C461.653 392.925 462.617 392.104 463.718 392.196C466.016 392.387 468.325 392.591 470.647 392.807C471.747 392.91 472.552 393.887 472.447 394.986ZM341.559 394.813C341.658 395.913 340.847 396.885 339.747 396.987C337.447 397.201 335.161 397.424 332.889 397.656C331.791 397.767 330.807 396.97 330.693 395.871C330.578 394.773 331.376 393.789 332.475 393.677C334.764 393.444 337.068 393.219 339.387 393.004C340.487 392.901 341.459 393.712 341.559 394.813ZM494.148 397.412C494.009 398.508 493.007 399.283 491.911 399.146C489.628 398.862 487.357 398.59 485.096 398.331C483.999 398.205 483.208 397.216 483.331 396.118C483.454 395.02 484.443 394.23 485.541 394.356C487.822 394.617 490.113 394.891 492.417 395.178C493.513 395.315 494.288 396.316 494.148 397.412ZM319.807 397.079C319.936 398.176 319.151 399.17 318.055 399.301C315.759 399.576 313.478 399.859 311.212 400.148C310.117 400.288 309.113 399.515 308.971 398.42C308.829 397.325 309.601 396.321 310.697 396.181C312.979 395.89 315.276 395.605 317.588 395.328C318.685 395.197 319.678 395.982 319.807 397.079ZM61.31 405.13C60.688 406.043 59.4425 406.28 58.5424 405.64C56.4923 404.182 54.5091 402.654 52.5909 401.061C51.7412 400.355 51.6508 399.09 52.3732 398.255C53.0957 397.419 54.3573 397.329 55.2075 398.034C57.0105 399.529 58.8726 400.964 60.7956 402.334C61.6951 402.975 61.9321 404.217 61.31 405.13ZM515.772 400.499C515.599 401.59 514.575 402.335 513.483 402.165C511.218 401.813 508.964 401.474 506.72 401.147C505.627 400.988 504.867 399.975 505.023 398.882C505.18 397.788 506.193 397.028 507.286 397.187C509.549 397.517 511.823 397.859 514.108 398.214C515.2 398.384 515.944 399.408 515.772 400.499ZM298.178 399.884C298.332 400.978 297.571 401.99 296.477 402.147C294.178 402.476 291.893 402.811 289.624 403.152C288.532 403.315 287.512 402.565 287.347 401.473C287.181 400.38 287.932 399.361 289.024 399.197C291.306 398.855 293.604 398.518 295.918 398.186C297.011 398.029 298.023 398.791 298.178 399.884ZM537.297 404.227C537.093 405.312 536.047 406.026 534.961 405.825C532.712 405.408 530.474 405.003 528.245 404.611C527.158 404.42 526.428 403.385 526.617 402.296C526.805 401.208 527.841 400.478 528.928 400.67C531.176 401.065 533.433 401.473 535.701 401.894C536.787 402.095 537.501 403.141 537.297 404.227ZM276.537 403.164C276.712 404.254 275.971 405.28 274.88 405.457C272.593 405.829 270.321 406.204 268.065 406.581C266.976 406.764 265.944 406.03 265.76 404.941C265.577 403.851 266.311 402.819 267.4 402.637C269.666 402.258 271.947 401.881 274.245 401.508C275.335 401.331 276.361 402.073 276.537 403.164ZM558.708 408.569C558.473 409.649 557.408 410.333 556.328 410.101C554.093 409.621 551.869 409.154 549.654 408.698C548.572 408.476 547.872 407.42 548.092 406.338C548.312 405.255 549.367 404.556 550.449 404.778C552.682 405.237 554.925 405.709 557.178 406.193C558.258 406.425 558.942 407.49 558.708 408.569ZM255.01 406.787C255.2 407.875 254.472 408.911 253.384 409.102C251.104 409.502 248.84 409.903 246.592 410.303C245.504 410.497 244.465 409.773 244.271 408.686C244.077 407.599 244.801 406.559 245.888 406.366C248.141 405.965 250.41 405.563 252.696 405.162C253.784 404.971 254.82 405.699 255.01 406.787ZM231.315 413.05C229.215 413.429 227.128 413.806 225.055 414.179C223.968 414.375 222.928 413.652 222.732 412.565C222.537 411.478 223.26 410.438 224.347 410.242C226.428 409.868 228.522 409.489 230.632 409.108L231.172 409.011C232.259 408.814 233.3 409.536 233.496 410.623C233.692 411.71 232.97 412.751 231.883 412.947L231.315 413.05ZM579.993 413.502C579.729 414.575 578.646 415.23 577.572 414.969C575.349 414.428 573.135 413.899 570.93 413.382C569.854 413.13 569.184 412.056 569.434 410.979C569.683 409.903 570.758 409.233 571.833 409.485C574.056 410.006 576.287 410.54 578.528 411.085C579.601 411.346 580.257 412.43 579.993 413.502ZM81.2264 415.599C80.8246 416.628 79.6639 417.138 78.6427 416.717C76.3063 415.753 74.0339 414.718 71.8243 413.613C70.8363 413.119 70.4604 411.909 70.9737 410.93C71.487 409.952 72.695 409.577 73.6834 410.071C75.7621 411.108 77.8999 412.082 80.0983 412.991C81.1191 413.412 81.6283 414.57 81.2264 415.599ZM211.972 414.483C212.164 415.57 211.437 416.608 210.349 416.798C208.053 417.2 205.774 417.595 203.512 417.981C202.423 418.166 201.391 417.432 201.207 416.343C201.023 415.254 201.757 414.222 202.845 414.036C205.098 413.652 207.368 413.259 209.655 412.859C210.744 412.668 211.781 413.395 211.972 414.483ZM601.146 418.999C600.854 420.065 599.754 420.692 598.688 420.403C596.471 419.802 594.263 419.212 592.064 418.635C590.996 418.355 590.355 417.263 590.633 416.194C590.911 415.125 592.002 414.483 593.071 414.764C595.286 415.345 597.511 415.939 599.744 416.544C600.81 416.834 601.437 417.934 601.146 418.999ZM190.428 418.109C190.601 419.2 189.856 420.225 188.764 420.395C186.456 420.754 184.165 421.1 181.89 421.431C180.797 421.591 179.784 420.83 179.628 419.737C179.472 418.643 180.232 417.631 181.325 417.471C183.579 417.143 185.851 416.8 188.14 416.444C189.232 416.274 190.256 417.018 190.428 418.109ZM102.936 421.615C102.744 422.703 101.706 423.431 100.622 423.222C98.1442 422.745 95.7229 422.201 93.3567 421.593C92.2869 421.319 91.6616 420.216 91.9546 419.151C92.2477 418.086 93.3482 417.462 94.4182 417.736C96.6633 418.311 98.9624 418.827 101.317 419.282C102.401 419.492 103.128 420.527 102.936 421.615ZM168.801 421.175C168.934 422.271 168.154 423.269 167.057 423.398C164.729 423.672 162.417 423.926 160.123 424.158C159.024 424.269 158.047 423.463 157.942 422.363C157.836 421.264 158.642 420.288 159.741 420.176C162 419.948 164.277 419.698 166.572 419.428C167.669 419.298 168.667 420.078 168.801 421.175ZM616.437 425.419C615.306 425.086 614.178 424.757 613.052 424.431C611.991 424.124 611.378 423.016 611.683 421.954C611.988 420.893 613.096 420.279 614.157 420.586C615.29 420.915 616.427 421.246 617.565 421.581C618.642 421.898 619.722 422.21 620.806 422.518C621.868 422.819 622.491 423.922 622.195 424.986C621.899 426.05 620.796 426.673 619.734 426.371C618.631 426.058 617.532 425.741 616.437 425.419ZM119.676 425.497C118.408 425.431 117.152 425.35 115.909 425.254C114.807 425.169 113.997 424.195 114.097 423.095C114.197 421.995 115.17 421.185 116.271 421.27C117.463 421.362 118.668 421.439 119.885 421.503C121.007 421.561 122.135 421.61 123.266 421.649C124.37 421.688 125.243 422.604 125.215 423.709C125.187 424.813 124.27 425.687 123.166 425.648C121.999 425.608 120.836 425.558 119.676 425.497ZM147.052 423.235C147.121 424.337 146.284 425.288 145.181 425.35C142.832 425.483 140.499 425.586 138.183 425.657C137.079 425.691 136.163 424.816 136.138 423.712C136.112 422.607 136.987 421.692 138.091 421.658C140.353 421.588 142.632 421.487 144.929 421.358C146.032 421.296 146.982 422.132 147.052 423.235ZM643.43 430.272C643.191 431.351 642.123 432.032 641.046 431.788C638.752 431.269 636.471 430.734 634.204 430.181C633.131 429.92 632.478 428.834 632.745 427.763C633.011 426.691 634.096 426.038 635.169 426.3C637.403 426.843 639.65 427.371 641.911 427.883C642.988 428.126 643.669 429.194 643.43 430.272ZM664.886 434.503C664.697 435.591 663.661 436.32 662.573 436.126C660.254 435.712 657.945 435.285 655.648 434.842C654.563 434.633 653.858 433.581 654.071 432.497C654.285 431.413 655.336 430.708 656.421 430.917C658.689 431.354 660.969 431.777 663.26 432.185C664.347 432.379 665.076 433.415 664.886 434.503ZM686.447 437.82C686.3 438.914 685.293 439.683 684.198 439.532C681.884 439.212 679.578 438.881 677.282 438.536C676.19 438.372 675.441 437.351 675.608 436.259C675.776 435.167 676.797 434.419 677.889 434.582C680.161 434.923 682.442 435.251 684.732 435.567C685.826 435.718 686.594 436.725 686.447 437.82ZM1057.7 437.667C1057.7 438.771 1056.8 439.665 1055.7 439.664C1053.37 439.664 1051.04 439.67 1048.69 439.683C1047.58 439.689 1046.68 438.801 1046.67 437.696C1046.66 436.591 1047.55 435.689 1048.66 435.683C1051.02 435.67 1053.37 435.664 1055.7 435.664C1056.81 435.665 1057.7 436.562 1057.7 437.667ZM1079.55 437.954C1079.52 439.058 1078.6 439.93 1077.5 439.905C1075.2 439.852 1072.88 439.809 1070.54 439.774C1069.44 439.757 1068.56 438.851 1068.57 437.746C1068.58 436.642 1069.49 435.758 1070.59 435.774C1072.95 435.809 1075.28 435.853 1077.6 435.906C1078.7 435.932 1079.58 436.85 1079.55 437.954ZM1035.84 437.817C1035.86 438.921 1034.97 439.83 1033.87 439.848C1031.55 439.885 1029.22 439.929 1026.88 439.977C1025.77 439.999 1024.86 439.123 1024.83 438.019C1024.81 436.915 1025.69 436 1026.79 435.977C1029.14 435.929 1031.48 435.886 1033.81 435.848C1034.91 435.83 1035.82 436.712 1035.84 437.817ZM1013.97 438.285C1014 439.389 1013.13 440.309 1012.02 440.34C1009.72 440.404 1007.41 440.473 1005.09 440.545C1003.99 440.579 1003.06 439.713 1003.03 438.609C1002.99 437.505 1003.86 436.581 1004.96 436.547C1007.29 436.475 1009.6 436.406 1011.91 436.341C1013.02 436.31 1013.94 437.181 1013.97 438.285ZM1101.38 438.834C1101.32 439.937 1100.38 440.78 1099.27 440.72C1096.99 440.598 1094.69 440.488 1092.36 440.388C1091.26 440.341 1090.4 439.411 1090.44 438.307C1090.49 437.204 1091.42 436.344 1092.52 436.391C1094.87 436.492 1097.19 436.603 1099.5 436.727C1100.6 436.786 1101.45 437.731 1101.38 438.834ZM992.083 438.978C992.123 440.082 991.26 441.008 990.156 441.048C987.869 441.131 985.574 441.216 983.272 441.303C982.168 441.345 981.239 440.485 981.196 439.381C981.154 438.277 982.014 437.348 983.118 437.306C985.424 437.219 987.723 437.133 990.014 437.051C991.118 437.011 992.044 437.874 992.083 438.978ZM708.135 440.363C708.024 441.462 707.044 442.263 705.945 442.149C703.638 441.91 701.339 441.66 699.047 441.399C697.95 441.274 697.165 440.28 697.293 439.183C697.422 438.086 698.415 437.301 699.512 437.426C701.783 437.684 704.061 437.932 706.347 438.17C707.445 438.284 708.246 439.264 708.135 440.363ZM1123.18 440.521C1123.07 441.62 1122.09 442.421 1120.99 442.316C1118.72 442.099 1116.43 441.897 1114.11 441.71C1113.01 441.621 1112.19 440.66 1112.27 439.559C1112.36 438.458 1113.32 437.633 1114.42 437.722C1116.77 437.912 1119.09 438.116 1121.39 438.336C1122.49 438.441 1123.29 439.422 1123.18 440.521ZM970.203 439.816C970.248 440.919 969.39 441.85 968.286 441.895C966.006 441.989 963.719 442.083 961.427 442.179C960.324 442.225 959.391 441.368 959.345 440.264C959.299 439.161 960.156 438.229 961.259 438.183C963.553 438.087 965.842 437.992 968.124 437.899C969.228 437.854 970.159 438.712 970.203 439.816ZM948.409 440.728C948.456 441.832 947.6 442.765 946.497 442.812C944.191 442.911 941.88 443.01 939.564 443.109C938.46 443.156 937.527 442.3 937.48 441.197C937.433 440.093 938.289 439.16 939.393 439.113C941.708 439.014 944.019 438.914 946.326 438.816C947.429 438.768 948.362 439.625 948.409 440.728ZM729.915 442.241C729.835 443.342 728.878 444.171 727.776 444.089C725.478 443.917 723.185 443.736 720.899 443.546C719.798 443.454 718.982 442.485 719.077 441.384C719.172 440.284 720.14 439.468 721.241 439.56C723.509 439.749 725.784 439.929 728.065 440.099C729.166 440.181 729.995 441.139 729.915 442.241ZM926.581 441.662C926.628 442.765 925.771 443.698 924.667 443.744C922.35 443.842 920.029 443.939 917.705 444.036C916.601 444.081 915.67 443.224 915.624 442.12C915.579 441.016 916.436 440.085 917.54 440.039C919.168 439.972 920.793 439.904 922.417 439.835C923.111 439.806 923.805 439.777 924.498 439.748C925.602 439.701 926.534 440.558 926.581 441.662ZM1144.88 443.321C1144.7 444.411 1143.68 445.152 1142.58 444.983C1140.33 444.634 1138.05 444.305 1135.73 443.995C1134.64 443.849 1133.86 442.848 1134 441.752C1134.15 440.656 1135.15 439.881 1136.24 440.028C1138.6 440.343 1140.93 440.678 1143.22 441.034C1144.31 441.203 1145.06 442.23 1144.88 443.321ZM904.73 442.561C904.774 443.664 903.914 444.595 902.811 444.638C900.503 444.728 898.192 444.817 895.879 444.905C894.775 444.946 893.847 444.085 893.806 442.981C893.765 441.877 894.626 440.949 895.73 440.907C898.04 440.82 900.347 440.731 902.652 440.641C903.756 440.598 904.686 441.457 904.73 442.561ZM751.754 443.545C751.702 444.648 750.765 445.5 749.661 445.445C747.343 445.329 745.029 445.205 742.72 445.073C741.617 445.01 740.777 444.062 740.843 442.96C740.908 441.857 741.855 441.017 742.958 441.08C745.251 441.211 747.549 441.334 749.852 441.449C750.956 441.504 751.807 442.441 751.754 443.545ZM882.872 443.374C882.91 444.478 882.046 445.403 880.942 445.441C878.636 445.519 876.328 445.595 874.019 445.668C872.915 445.703 871.992 444.836 871.958 443.732C871.924 442.628 872.791 441.705 873.895 441.67C876.199 441.597 878.502 441.521 880.804 441.443C881.908 441.406 882.833 442.27 882.872 443.374ZM773.625 444.357C773.595 445.461 772.675 446.332 771.571 446.301C769.238 446.233 766.909 446.159 764.584 446.077C763.48 446.038 762.618 445.11 762.659 444.007C762.7 442.903 763.628 442.041 764.732 442.08C767.044 442.161 769.36 442.235 771.679 442.302C772.784 442.334 773.654 443.253 773.625 444.357ZM861.027 444.05C861.057 445.154 860.186 446.074 859.082 446.103C856.77 446.163 854.457 446.221 852.143 446.275C851.039 446.301 850.124 445.426 850.099 444.322C850.074 443.217 850.949 442.302 852.053 442.276C854.36 442.222 856.667 442.165 858.974 442.104C860.078 442.075 860.997 442.946 861.027 444.05ZM839.173 444.54C839.192 445.644 838.312 446.555 837.208 446.573C834.895 446.611 832.583 446.645 830.271 446.674C829.167 446.689 828.261 445.803 828.248 444.699C828.235 443.594 829.12 442.689 830.225 442.675C832.529 442.645 834.833 442.612 837.139 442.574C838.243 442.556 839.154 443.436 839.173 444.54ZM795.452 444.75C795.441 445.855 794.537 446.742 793.433 446.73C791.112 446.704 788.795 446.673 786.48 446.635C785.375 446.617 784.496 445.706 784.516 444.601C784.535 443.497 785.447 442.618 786.551 442.636C788.855 442.673 791.161 442.705 793.471 442.73C794.575 442.742 795.462 443.646 795.452 444.75ZM817.308 444.792C817.313 445.896 816.423 446.797 815.318 446.801C813.005 446.81 810.694 446.814 808.385 446.813C807.28 446.813 806.386 445.916 806.388 444.811C806.39 443.707 807.287 442.813 808.392 442.813C810.692 442.814 812.994 442.81 815.297 442.801C816.402 442.797 817.302 443.687 817.308 444.792ZM1166.3 447.682C1166.03 448.753 1164.94 449.401 1163.87 449.141C1161.65 448.604 1159.38 448.093 1157.08 447.609C1156 447.382 1155.3 446.328 1155.51 445.245C1155.73 444.162 1156.79 443.461 1157.87 443.687C1160.24 444.184 1162.56 444.709 1164.85 445.263C1165.92 445.523 1166.57 446.611 1166.3 447.682ZM1187.05 454.266C1186.64 455.293 1185.48 455.795 1184.45 455.404C1182.37 454.616 1180.23 453.864 1178.05 453.146C1177 452.802 1176.41 451.681 1176.74 450.627C1177.07 449.573 1178.2 448.987 1179.25 449.331C1181.52 450.077 1183.75 450.861 1185.92 451.684C1186.95 452.075 1187.45 453.239 1187.05 454.266ZM1206.51 464.148C1205.91 465.073 1204.67 465.333 1203.73 464.751C1201.88 463.602 1199.95 462.501 1197.95 461.447C1196.98 460.931 1196.58 459.73 1197.07 458.744C1197.57 457.757 1198.78 457.359 1199.75 457.874C1201.88 458.995 1203.93 460.169 1205.91 461.399C1206.85 461.982 1207.11 463.223 1206.51 464.148ZM1222.89 478.442C1222.04 479.152 1220.78 479.039 1220.05 478.215C1218.59 476.579 1217.03 475.008 1215.38 473.498C1214.57 472.753 1214.47 471.492 1215.19 470.656C1215.92 469.821 1217.18 469.727 1218 470.471C1219.8 472.12 1221.51 473.844 1223.11 475.644C1223.85 476.469 1223.74 477.732 1222.89 478.442ZM1233.73 497.188C1232.69 497.568 1231.54 497.034 1231.13 496.01C1230.31 493.97 1229.39 492.002 1228.38 490.103C1227.86 489.129 1228.18 487.907 1229.14 487.355C1230.09 486.803 1231.32 487.129 1231.84 488.102C1232.97 490.201 1233.98 492.377 1234.89 494.633C1235.3 495.658 1234.76 496.809 1233.73 497.188ZM1238.01 518.627C1236.9 518.692 1235.96 517.851 1235.87 516.75C1235.68 514.452 1235.4 512.223 1235.04 510.061C1234.86 508.972 1235.56 507.921 1236.64 507.709C1237.73 507.496 1238.78 508.202 1238.97 509.291C1239.36 511.631 1239.66 514.038 1239.86 516.514C1239.95 517.615 1239.11 518.562 1238.01 518.627ZM1237 540.299C1235.91 540.147 1235.15 539.137 1235.28 538.041C1235.57 535.723 1235.78 533.459 1235.93 531.249C1236 530.147 1236.94 529.296 1238.04 529.349C1239.15 529.403 1240 530.341 1239.93 531.443C1239.77 533.773 1239.55 536.155 1239.24 538.591C1239.11 539.687 1238.1 540.451 1237 540.299ZM1232.52 561.583C1231.46 561.29 1230.83 560.19 1231.12 559.122C1231.71 556.889 1232.24 554.697 1232.73 552.546C1232.97 551.469 1234.03 550.779 1235.11 551.009C1236.19 551.238 1236.88 552.301 1236.64 553.378C1236.14 555.607 1235.58 557.874 1234.97 560.182C1234.69 561.25 1233.59 561.876 1232.52 561.583ZM1225.61 576.833C1226.03 575.656 1226.43 574.488 1226.83 573.33C1227.18 572.283 1228.31 571.712 1229.36 572.057C1230.41 572.401 1230.98 573.532 1230.63 574.578C1230.23 575.765 1229.81 576.961 1229.39 578.167C1228.98 579.307 1228.57 580.438 1228.16 581.56C1227.78 582.597 1226.62 583.117 1225.59 582.725C1224.55 582.334 1224.03 581.18 1224.42 580.144C1224.82 579.049 1225.22 577.945 1225.61 576.833ZM1217.01 602.584C1216.02 602.098 1215.61 600.901 1216.08 599.904C1217.04 597.915 1217.97 595.892 1218.88 593.834C1219.32 592.824 1220.5 592.356 1221.51 592.794C1222.53 593.232 1223 594.409 1222.55 595.42C1221.61 597.536 1220.66 599.617 1219.68 601.665C1219.2 602.661 1218 603.071 1217.01 602.584ZM1206.47 621.506C1205.54 620.917 1205.26 619.683 1205.84 618.743C1206.99 616.864 1208.13 614.95 1209.24 612.999C1209.79 612.039 1211 611.692 1211.97 612.229C1212.93 612.766 1213.28 613.984 1212.73 614.944C1211.59 616.958 1210.42 618.935 1209.22 620.876C1208.64 621.816 1207.41 622.095 1206.47 621.506ZM1193.88 639.136C1193.02 638.441 1192.88 637.183 1193.57 636.316C1194.94 634.576 1196.29 632.8 1197.62 630.986C1198.27 630.094 1199.52 629.885 1200.42 630.527C1201.32 631.169 1201.53 632.418 1200.87 633.31C1199.5 635.189 1198.1 637.029 1196.68 638.831C1196 639.697 1194.74 639.83 1193.88 639.136ZM1179.25 655.11C1178.49 654.315 1178.51 653.05 1179.29 652.274C1180.88 650.708 1182.44 649.105 1183.98 647.464C1184.73 646.658 1186 646.601 1186.81 647.347C1187.63 648.092 1187.69 649.358 1186.93 650.164C1185.34 651.867 1183.72 653.529 1182.07 655.153C1181.29 655.929 1180.02 655.905 1179.25 655.11ZM1162.77 669.143C1162.1 668.259 1162.28 667.007 1163.16 666.334C1164.94 664.97 1166.69 663.571 1168.41 662.135C1169.26 661.428 1170.53 661.529 1171.24 662.37C1171.96 663.211 1171.86 664.474 1171.01 665.181C1169.22 666.67 1167.4 668.121 1165.56 669.534C1164.69 670.206 1163.43 670.026 1162.77 669.143ZM1144.71 681.083C1144.15 680.128 1144.48 678.905 1145.43 678.34C1147.35 677.193 1149.26 676.014 1151.14 674.8C1152.07 674.201 1153.31 674.453 1153.92 675.375C1154.53 676.297 1154.27 677.538 1153.35 678.137C1151.4 679.394 1149.43 680.614 1147.44 681.799C1146.49 682.363 1145.26 682.038 1144.71 681.083ZM1125.41 690.932C1124.96 689.924 1125.42 688.742 1126.42 688.282C1128.47 687.346 1130.49 686.379 1132.5 685.381C1133.49 684.889 1134.69 685.279 1135.19 686.264C1135.69 687.248 1135.3 688.453 1134.32 688.945C1132.25 689.974 1130.16 690.97 1128.05 691.935C1127.05 692.394 1125.86 691.941 1125.41 690.932ZM1105.22 698.819C1104.86 697.773 1105.42 696.638 1106.47 696.275C1108.61 695.53 1110.73 694.759 1112.83 693.959C1113.86 693.567 1115.02 694.075 1115.42 695.104C1115.82 696.133 1115.32 697.294 1114.28 697.686C1112.12 698.507 1109.95 699.299 1107.75 700.063C1106.71 700.426 1105.57 699.865 1105.22 698.819ZM1084.41 704.95C1084.14 703.879 1084.79 702.792 1085.86 702.513C1088.06 701.938 1090.25 701.34 1092.43 700.717C1093.49 700.413 1094.6 701.019 1094.91 702.079C1095.22 703.138 1094.62 704.251 1093.56 704.555C1091.33 705.192 1089.09 705.803 1086.84 706.391C1085.77 706.669 1084.68 706.02 1084.41 704.95ZM1063.23 709.557C1063.03 708.47 1063.75 707.428 1064.84 707.222C1067.08 706.795 1069.31 706.349 1071.53 705.881C1072.61 705.653 1073.67 706.338 1073.91 707.417C1074.14 708.497 1073.46 709.562 1072.38 709.79C1070.12 710.267 1067.85 710.721 1065.56 711.156C1064.48 711.362 1063.44 710.643 1063.23 709.557ZM1041.82 712.884C1041.68 711.789 1042.46 710.787 1043.55 710.641C1045.81 710.339 1048.07 710.021 1050.31 709.685C1051.4 709.521 1052.42 710.268 1052.59 711.36C1052.76 712.451 1052.01 713.474 1050.92 713.638C1048.64 713.979 1046.36 714.302 1044.06 714.608C1042.97 714.754 1041.96 713.98 1041.82 712.884ZM760.21 711.873C760.195 710.769 761.078 709.861 762.183 709.849C764.468 709.823 766.759 709.807 769.057 709.799C770.161 709.795 771.058 710.689 771.06 711.794C771.062 712.898 770.167 713.795 769.063 713.799C766.781 713.807 764.505 713.823 762.236 713.849C761.132 713.861 760.224 712.978 760.21 711.873ZM781.897 711.835C781.906 710.73 782.81 709.843 783.914 709.854C786.197 709.878 788.485 709.909 790.777 709.946C791.881 709.964 792.761 710.876 792.741 711.98C792.722 713.084 791.811 713.964 790.706 713.946C788.425 713.909 786.149 713.878 783.879 713.854C782.774 713.842 781.887 712.939 781.897 711.835ZM738.533 712.467C738.486 711.364 739.343 710.431 740.446 710.387C742.732 710.297 745.025 710.217 747.326 710.149C748.43 710.116 749.349 710.987 749.379 712.091C749.409 713.195 748.538 714.114 747.434 714.147C745.153 714.215 742.881 714.294 740.617 714.383C739.513 714.427 738.58 713.571 738.533 712.467ZM803.581 712.214C803.609 711.11 804.527 710.237 805.631 710.266C807.911 710.326 810.194 710.391 812.481 710.461C813.585 710.494 814.452 711.417 814.418 712.521C814.383 713.625 813.46 714.492 812.356 714.459C810.077 714.39 807.802 714.325 805.53 714.265C804.426 714.236 803.554 713.318 803.581 712.214ZM825.259 712.889C825.299 711.785 826.227 710.923 827.33 710.964C829.608 711.048 831.888 711.136 834.17 711.225C835.274 711.269 836.133 712.199 836.088 713.303C836.044 714.407 835.114 715.266 834.01 715.222C831.733 715.133 829.458 715.045 827.185 714.961C826.082 714.92 825.219 713.993 825.259 712.889ZM716.892 713.776C716.804 712.675 717.625 711.711 718.727 711.627C721.007 711.454 723.298 711.294 725.598 711.148C726.701 711.078 727.648 711.918 727.714 713.021C727.781 714.124 726.941 715.071 725.838 715.141C723.564 715.285 721.299 715.443 719.045 715.615C717.944 715.698 716.98 714.878 716.892 713.776ZM846.929 713.751C846.976 712.648 847.909 711.791 849.012 711.838C851.289 711.936 853.567 712.035 855.845 712.134C856.949 712.183 857.804 713.117 857.756 714.22C857.707 715.323 856.773 716.179 855.67 716.131C853.393 716.031 851.117 715.932 848.842 715.835C847.739 715.787 846.882 714.855 846.929 713.751ZM1020.26 715.15C1020.17 714.049 1020.99 713.083 1022.09 712.987C1024.37 712.789 1026.63 712.576 1028.89 712.349C1029.99 712.239 1030.97 713.035 1031.09 714.134C1031.2 715.232 1030.41 716.217 1029.31 716.327C1027.02 716.558 1024.73 716.773 1022.42 716.973C1021.32 717.069 1020.36 716.251 1020.26 715.15ZM868.593 714.698C868.642 713.595 869.576 712.74 870.68 712.788C872.957 712.889 875.234 712.989 877.511 713.088C878.615 713.136 879.471 714.069 879.423 715.173C879.375 716.276 878.442 717.132 877.338 717.084C875.06 716.985 872.781 716.885 870.503 716.784C869.4 716.736 868.545 715.802 868.593 714.698ZM695.33 715.988C695.191 714.892 695.966 713.891 697.063 713.757C699.332 713.479 701.613 713.219 703.905 712.974C705.003 712.857 705.985 713.658 706.097 714.757C706.209 715.855 705.41 716.837 704.311 716.954C702.051 717.195 699.803 717.451 697.567 717.725C696.471 717.859 695.47 717.084 695.33 715.988ZM890.255 715.632C890.3 714.528 891.232 713.671 892.336 713.716C894.615 713.809 896.894 713.9 899.171 713.988C900.275 714.031 901.136 714.96 901.094 716.064C901.051 717.168 900.122 718.028 899.019 717.985C897.372 717.921 895.724 717.856 894.076 717.79C893.441 717.764 892.806 717.738 892.17 717.712C891.067 717.667 890.209 716.736 890.255 715.632ZM998.629 716.545C998.577 715.442 999.43 714.506 1000.53 714.45C1002.81 714.336 1005.09 714.211 1007.36 714.073C1008.46 714.005 1009.41 714.841 1009.48 715.944C1009.55 717.046 1008.72 717.997 1007.61 718.064C1005.32 718.204 1003.02 718.331 1000.72 718.446C999.617 718.501 998.681 717.648 998.629 716.545ZM911.916 716.456C911.954 715.352 912.879 714.487 913.983 714.524C916.267 714.599 918.549 714.671 920.828 714.738C921.932 714.771 922.802 715.692 922.77 716.796C922.739 717.9 921.818 718.769 920.714 718.737C918.427 718.669 916.138 718.597 913.847 718.521C912.743 718.485 911.879 717.559 911.916 716.456ZM976.956 717.236C976.936 716.132 977.816 715.22 978.92 715.198C981.205 715.151 983.485 715.096 985.758 715.03C986.862 714.998 987.786 715.864 987.821 716.968C987.855 718.072 986.989 718.996 985.885 719.028C983.593 719.094 981.295 719.151 978.992 719.197C977.887 719.22 976.976 718.34 976.956 717.236ZM933.589 717.069C933.613 715.965 934.528 715.09 935.632 715.112C937.919 715.159 940.201 715.201 942.481 715.236C943.585 715.253 944.468 716.161 944.453 717.265C944.437 718.37 943.529 719.253 942.425 719.236C940.135 719.2 937.841 719.158 935.545 719.111C934.441 719.089 933.565 718.174 933.589 717.069ZM955.272 717.368C955.277 716.263 956.177 715.372 957.281 715.376C959.568 715.382 961.85 715.382 964.127 715.373C965.232 715.369 966.132 716.259 966.139 717.363C966.145 718.468 965.255 719.369 964.151 719.373C961.859 719.382 959.562 719.382 957.262 719.376C956.158 719.372 955.266 718.473 955.272 717.368ZM673.924 719.323C673.721 718.237 674.436 717.192 675.523 716.996C677.769 716.59 680.029 716.204 682.302 715.839C683.392 715.663 684.415 716.411 684.584 717.503C684.754 718.594 684.006 719.616 682.916 719.791C680.682 720.151 678.463 720.529 676.258 720.928C675.171 721.124 674.127 720.409 673.924 719.323ZM652.791 724.037C652.51 722.969 653.149 721.874 654.219 721.602C656.425 721.04 658.648 720.502 660.887 719.988C661.964 719.741 663.033 720.421 663.273 721.499C663.512 722.578 662.833 723.645 661.756 723.893C659.566 724.396 657.392 724.922 655.235 725.471C654.165 725.743 653.071 725.105 652.791 724.037ZM632.065 730.434C631.692 729.395 632.231 728.248 633.274 727.884C635.435 727.129 637.617 726.403 639.817 725.706C640.87 725.372 641.99 725.965 642.315 727.02C642.64 728.076 642.048 729.194 640.995 729.528C638.852 730.208 636.729 730.914 634.626 731.649C633.584 732.013 632.438 731.474 632.065 730.434ZM616.181 734.676C617.224 734.207 618.273 733.746 619.327 733.294C620.342 732.858 621.514 733.341 621.94 734.36C622.365 735.379 621.884 736.549 620.869 736.985C619.847 737.424 618.831 737.87 617.821 738.324C616.758 738.802 615.694 739.273 614.628 739.739C613.615 740.181 612.439 739.712 612.003 738.697C611.567 737.682 612.036 736.506 613.048 736.064C614.094 735.607 615.139 735.144 616.181 734.676ZM591.724 746.654C591.353 745.614 591.896 744.47 592.934 744.093C595.073 743.316 597.206 742.519 599.331 741.699C600.362 741.302 601.522 741.808 601.926 742.836C602.329 743.865 601.823 745.026 600.792 745.423C598.627 746.258 596.456 747.07 594.278 747.861C593.24 748.238 592.095 747.694 591.724 746.654ZM570.997 753.357C570.687 752.297 571.297 751.187 572.355 750.873C574.539 750.223 576.717 749.554 578.89 748.865C579.943 748.531 581.07 749.107 581.409 750.159C581.749 751.21 581.173 752.338 580.12 752.672C577.911 753.372 575.696 754.053 573.475 754.713C572.416 755.027 571.306 754.418 570.997 753.357ZM549.922 758.879C549.67 757.804 550.339 756.729 551.413 756.472C553.631 755.942 555.845 755.395 558.053 754.828C559.123 754.554 560.216 755.193 560.496 756.261C560.775 757.33 560.136 758.423 559.066 758.698C556.823 759.273 554.576 759.829 552.323 760.367C551.249 760.624 550.173 759.955 549.922 758.879ZM528.589 763.307C528.391 762.22 529.111 761.179 530.197 760.976C532.44 760.557 534.68 760.121 536.915 759.668C537.998 759.448 539.056 760.143 539.281 761.225C539.505 762.306 538.81 763.365 537.727 763.585C535.46 764.044 533.189 764.486 530.915 764.911C529.829 765.114 528.787 764.394 528.589 763.307ZM202.377 764.238C202.372 763.133 203.264 762.234 204.369 762.232C206.674 762.229 208.993 762.238 211.327 762.257C212.432 762.266 213.317 763.172 213.305 764.276C213.293 765.38 212.388 766.266 211.284 766.257C208.97 766.238 206.67 766.229 204.386 766.232C203.281 766.234 202.382 765.342 202.377 764.238ZM180.6 764.733C180.552 763.63 181.408 762.696 182.512 762.653C184.822 762.562 187.15 762.487 189.495 762.426C190.599 762.398 191.514 763.274 191.539 764.378C191.563 765.482 190.688 766.397 189.584 766.425C187.267 766.485 184.967 766.559 182.685 766.649C181.582 766.692 180.648 765.837 180.6 764.733ZM224.19 764.464C224.215 763.359 225.131 762.485 226.236 762.513C228.525 762.571 230.826 762.637 233.139 762.71C234.243 762.746 235.108 763.671 235.07 764.775C235.033 765.879 234.109 766.743 233.005 766.708C230.705 766.635 228.418 766.569 226.142 766.512C225.038 766.484 224.164 765.568 224.19 764.464ZM507.071 766.736C506.921 765.642 507.687 764.633 508.78 764.479C511.042 764.16 513.301 763.825 515.556 763.476C516.648 763.307 517.673 764.05 517.846 765.141C518.02 766.231 517.276 767.257 516.185 767.426C513.901 767.78 511.614 768.119 509.324 768.442C508.23 768.596 507.221 767.831 507.071 766.736ZM246.001 765.188C246.047 764.085 246.979 763.227 248.083 763.275C250.359 763.373 252.646 763.477 254.941 763.585C256.045 763.638 256.896 764.575 256.843 765.679C256.789 766.782 255.852 767.633 254.749 767.581C252.461 767.473 250.183 767.37 247.916 767.272C246.812 767.224 245.955 766.292 246.001 765.188ZM158.926 766.235C158.818 765.136 159.622 764.156 160.722 764.055C162.989 763.845 165.276 763.656 167.583 763.486C168.685 763.405 169.639 764.237 169.715 765.339C169.791 766.441 168.959 767.395 167.857 767.477C165.588 767.644 163.34 767.83 161.113 768.036C160.013 768.137 159.034 767.334 158.926 766.235ZM267.767 766.234C267.826 765.131 268.768 764.284 269.871 764.344C272.148 764.466 274.434 764.592 276.728 764.72C277.831 764.782 278.674 765.726 278.612 766.829C278.55 767.932 277.605 768.776 276.502 768.714C274.213 768.586 271.931 768.46 269.658 768.338C268.555 768.279 267.709 767.337 267.767 766.234ZM289.51 767.456C289.575 766.353 290.521 765.512 291.624 765.576C293.908 765.71 296.2 765.845 298.498 765.981C299.601 766.046 300.442 766.992 300.377 768.095C300.312 769.198 299.365 770.039 298.263 769.974C295.965 769.838 293.674 769.703 291.39 769.569C290.288 769.505 289.446 768.559 289.51 767.456ZM137.261 769.151C137.07 768.064 137.797 767.026 138.887 766.843C141.163 766.462 143.465 766.109 145.792 765.781C146.886 765.627 147.893 766.397 148.039 767.491C148.185 768.586 147.416 769.592 146.322 769.746C144.048 770.066 141.8 770.412 139.579 770.783C138.489 770.966 137.453 770.239 137.261 769.151ZM485.428 769.267C485.321 768.168 486.125 767.19 487.224 767.079C489.498 766.849 491.771 766.607 494.04 766.35C495.138 766.226 496.131 767.011 496.259 768.108C496.387 769.205 495.602 770.199 494.504 770.323C492.209 770.582 489.911 770.828 487.612 771.06C486.513 771.171 485.535 770.366 485.428 769.267ZM311.26 768.734C311.324 767.632 312.27 766.79 313.373 766.854C315.662 766.987 317.957 767.12 320.257 767.251C321.36 767.314 322.203 768.258 322.141 769.361C322.078 770.464 321.134 771.307 320.031 771.244C317.728 771.113 315.431 770.981 313.14 770.847C312.037 770.783 311.195 769.837 311.26 768.734ZM333.017 769.961C333.076 768.858 334.018 768.012 335.121 768.071C337.413 768.192 339.709 768.312 342.01 768.428C343.113 768.483 343.963 769.422 343.908 770.525C343.853 771.628 342.915 772.478 341.812 772.423C339.505 772.306 337.204 772.187 334.907 772.065C333.804 772.007 332.957 771.064 333.017 769.961ZM463.705 771C463.636 769.897 464.473 768.948 465.576 768.875C467.858 768.725 470.139 768.563 472.419 768.389C473.521 768.305 474.484 769.126 474.572 770.227C474.66 771.328 473.838 772.292 472.737 772.376C470.434 772.552 468.131 772.716 465.826 772.867C464.724 772.94 463.774 772.102 463.705 771ZM354.784 771.039C354.833 769.935 355.768 769.081 356.871 769.129C359.165 769.229 361.461 769.325 363.761 769.416C364.865 769.46 365.725 770.389 365.683 771.493C365.64 772.597 364.711 773.457 363.607 773.413C361.299 773.322 358.994 773.225 356.693 773.125C355.589 773.077 354.735 772.142 354.784 771.039ZM116.064 773.966C115.76 772.904 116.375 771.796 117.44 771.504C119.672 770.893 121.935 770.318 124.229 769.777C125.304 769.523 126.375 770.201 126.618 771.278C126.861 772.356 126.184 773.425 125.109 773.679C122.887 774.203 120.697 774.76 118.539 775.35C117.474 775.642 116.367 775.028 116.064 773.966ZM441.936 772.032C441.9 770.928 442.766 770.004 443.87 769.965C446.158 769.884 448.445 769.793 450.733 769.691C451.836 769.642 452.773 770.494 452.825 771.597C452.877 772.701 452.025 773.638 450.921 773.687C448.615 773.79 446.308 773.882 444.001 773.963C442.897 774.002 441.973 773.136 441.936 772.032ZM376.563 771.875C376.598 770.77 377.521 769.904 378.625 769.937C380.919 770.006 383.215 770.069 385.514 770.126C386.618 770.154 387.492 771.069 387.466 772.174C387.441 773.278 386.525 774.152 385.42 774.125C383.111 774.068 380.803 774.004 378.499 773.935C377.395 773.902 376.528 772.979 376.563 771.875ZM420.147 772.461C420.139 771.356 421.028 770.455 422.132 770.444C424.424 770.423 426.716 770.393 429.008 770.353C430.113 770.334 431.025 771.212 431.047 772.316C431.068 773.421 430.191 774.334 429.086 774.353C426.777 774.392 424.469 774.423 422.161 774.444C421.056 774.455 420.155 773.566 420.147 772.461ZM398.352 772.378C398.368 771.274 399.276 770.391 400.38 770.405C402.673 770.433 404.968 770.454 407.264 770.468C408.369 770.475 409.261 771.373 409.257 772.478C409.252 773.582 408.353 774.474 407.249 774.468C404.939 774.454 402.63 774.433 400.324 774.405C399.219 774.391 398.336 773.483 398.352 772.378ZM95.5571 781.363C95.1057 780.355 95.5564 779.17 96.571 778.734C98.7113 777.813 100.891 776.939 103.109 776.11C104.143 775.724 105.289 776.265 105.662 777.305C106.035 778.344 105.494 779.488 104.46 779.875C102.336 780.67 100.251 781.506 98.2059 782.385C97.1911 782.821 96.0085 782.371 95.5571 781.363ZM76.5966 791.964C75.968 791.056 76.1938 789.809 77.1133 789.197C79.069 787.895 81.0719 786.652 83.1208 785.466C84.0766 784.912 85.2955 785.26 85.8329 786.225C86.3703 787.19 86.0227 788.407 85.0672 788.961C83.1298 790.084 81.2371 791.259 79.39 792.486C78.47 793.098 77.2252 792.872 76.5966 791.964ZM60.1307 806.16C59.3227 805.407 59.2767 804.14 60.0458 803.347C61.7001 801.642 63.4076 800.002 65.1667 798.427C65.9895 797.69 67.2537 797.786 67.9744 798.623C68.6951 799.46 68.5993 800.721 67.7771 801.458C66.1273 802.939 64.5254 804.477 62.9724 806.075C62.2027 806.867 60.9387 806.914 60.1307 806.16ZM48.3359 817.892C49.0067 816.884 49.6913 815.892 50.3894 814.918C51.0326 814.02 52.2874 813.839 53.1727 814.499C54.0581 815.16 54.2387 816.412 53.5962 817.31C52.9406 818.227 52.2972 819.159 51.6662 820.108C51.0096 821.095 50.3642 822.081 49.7299 823.067C49.1324 823.996 47.8982 824.277 46.9638 823.687C46.0295 823.098 45.749 821.863 46.3464 820.934C46.9981 819.92 47.6613 818.906 48.3359 817.892ZM36.2441 842.82C35.2523 842.334 34.8414 841.135 35.3379 840.148C36.399 838.04 37.5094 835.929 38.6694 833.816C39.201 832.848 40.4212 832.506 41.3842 833.047C42.3472 833.588 42.6884 834.807 42.157 835.775C41.0333 837.823 39.9576 839.867 38.9298 841.909C38.4331 842.896 37.2359 843.306 36.2441 842.82ZM27.8469 862.987C26.8019 862.629 26.2435 861.492 26.6141 860.451C27.395 858.258 28.2298 856.061 29.1187 853.86C29.5324 852.836 30.7047 852.355 31.7241 852.781C32.7435 853.206 33.2238 854.377 32.8104 855.401C31.9547 857.521 31.1509 859.636 30.3988 861.747C30.0279 862.787 28.8919 863.345 27.8469 862.987ZM22.2533 884.226C21.1669 884.026 20.4465 882.984 20.6613 881.9C21.1189 879.592 21.6374 877.278 22.2172 874.957C22.485 873.886 23.5808 873.249 24.6487 873.531C25.7167 873.813 26.3523 874.907 26.085 875.979C25.5307 878.201 25.0345 880.416 24.596 882.622C24.3807 883.706 23.3397 884.425 22.2533 884.226ZM20.0898 905.993C18.9853 905.978 18.1005 905.07 18.1329 903.966C18.2024 901.602 18.3383 899.226 18.5408 896.842C18.6342 895.741 19.6161 894.94 20.7152 895.05C21.8143 895.16 22.6142 896.14 22.5213 897.241C22.3296 899.511 22.2003 901.771 22.1331 904.021C22.1001 905.125 21.1943 906.008 20.0898 905.993ZM21.7688 927.838C20.6798 928.023 19.6453 927.291 19.4782 926.199C19.1188 923.849 18.8283 921.486 18.6071 919.11C18.5047 918.01 19.3308 917.049 20.4322 916.964C21.5335 916.88 22.4929 917.704 22.5959 918.804C22.8071 921.058 23.0826 923.3 23.4222 925.528C23.5886 926.62 22.8577 927.653 21.7688 927.838ZM27.4154 949.001C26.3787 949.382 25.2276 948.851 24.8634 947.808C24.0746 945.55 23.3539 943.276 22.7016 940.985C22.3992 939.922 23.035 938.826 24.1022 938.541C25.1694 938.256 26.2638 938.891 26.5669 939.953C27.1869 942.126 27.8707 944.284 28.6182 946.428C28.9819 947.471 28.4521 948.62 27.4154 949.001ZM36.7389 968.793C35.7835 969.347 34.5582 969.022 34.0184 968.059C32.8527 965.978 31.7498 963.879 30.7102 961.762C30.2233 960.77 30.6523 959.578 31.6512 959.106C32.6501 958.635 33.8406 959.063 34.328 960.054C35.3188 962.069 36.3692 964.069 37.4789 966.052C38.0184 967.016 37.6944 968.239 36.7389 968.793ZM49.2166 986.844C48.3582 987.539 47.0977 987.408 46.4139 986.54C44.9256 984.652 43.4945 982.744 42.1209 980.818C41.4796 979.918 41.7073 978.671 42.6155 978.043C43.5237 977.414 44.7684 977.641 45.41 978.541C46.726 980.385 48.0971 982.213 49.523 984.023C50.2065 984.891 50.0751 986.149 49.2166 986.844ZM64.0998 1002.86C63.3411 1003.66 62.0745 1003.7 61.2802 1002.93C59.5723 1001.28 57.9136 999.609 56.3041 997.921C55.5418 997.122 55.5878 995.856 56.3962 995.103C57.2045 994.35 58.4691 994.396 59.2317 995.195C60.7826 996.82 62.3814 998.429 64.0278 1000.02C64.8218 1000.79 64.8585 1002.05 64.0998 1002.86ZM80.9115 1016.98C80.2487 1017.87 78.9944 1018.05 78.1171 1017.37C76.2262 1015.93 74.3783 1014.46 72.5738 1012.98C71.7203 1012.28 71.6103 1011.02 72.3201 1010.17C73.03 1009.32 74.2908 1009.21 75.1444 1009.92C76.8931 1011.35 78.6842 1012.77 80.5175 1014.17C81.3947 1014.85 81.5743 1016.1 80.9115 1016.98ZM99.1093 1029.28C98.5345 1030.22 97.3034 1030.52 96.3649 1029.94C94.3227 1028.67 92.3189 1027.38 90.3536 1026.08C89.4328 1025.47 89.1921 1024.23 89.8101 1023.31C90.4281 1022.4 91.6707 1022.16 92.5916 1022.77C94.5053 1024.03 96.4569 1025.29 98.4465 1026.52C99.3849 1027.1 99.6841 1028.33 99.1093 1029.28ZM118.248 1039.86C117.752 1040.85 116.55 1041.25 115.566 1040.75C113.45 1039.67 111.367 1038.57 109.317 1037.46C108.346 1036.93 107.996 1035.71 108.53 1034.74C109.064 1033.78 110.281 1033.43 111.252 1033.95C113.256 1035.04 115.292 1036.12 117.361 1037.17C118.345 1037.68 118.744 1038.88 118.248 1039.86ZM138.166 1048.98C137.741 1050 136.57 1050.48 135.553 1050.05C133.386 1049.13 131.248 1048.2 129.138 1047.25C128.131 1046.8 127.689 1045.61 128.148 1044.61C128.607 1043.6 129.794 1043.16 130.801 1043.62C132.869 1044.54 134.966 1045.46 137.091 1046.36C138.108 1046.79 138.591 1047.96 138.166 1048.98ZM747.263 1051.24C747.248 1052.34 746.341 1053.22 745.236 1053.21C742.91 1053.18 740.571 1053.17 738.22 1053.15C737.116 1053.15 736.223 1052.25 736.226 1051.15C736.229 1050.04 737.127 1049.15 738.231 1049.15C740.596 1049.17 742.949 1049.18 745.29 1049.21C746.395 1049.22 747.278 1050.13 747.263 1051.24ZM725.315 1051.17C725.323 1052.28 724.435 1053.18 723.33 1053.19C720.988 1053.21 718.634 1053.24 716.268 1053.28C715.163 1053.3 714.252 1052.42 714.232 1051.32C714.212 1050.21 715.092 1049.3 716.196 1049.28C718.576 1049.24 720.944 1049.21 723.3 1049.19C724.404 1049.18 725.306 1050.07 725.315 1051.17ZM769.208 1051.77C769.169 1052.88 768.242 1053.74 767.138 1053.7C764.864 1053.63 762.577 1053.56 760.278 1053.5C759.174 1053.47 758.301 1052.55 758.328 1051.45C758.355 1050.34 759.273 1049.47 760.377 1049.5C762.69 1049.56 764.992 1049.63 767.281 1049.71C768.385 1049.74 769.248 1050.67 769.208 1051.77ZM703.213 1051.57C703.244 1052.67 702.373 1053.59 701.269 1053.62C698.983 1053.69 696.687 1053.77 694.38 1053.85C693.276 1053.89 692.347 1053.03 692.306 1051.92C692.265 1050.82 693.126 1049.89 694.23 1049.85C696.55 1049.77 698.859 1049.69 701.158 1049.63C702.262 1049.59 703.182 1050.46 703.213 1051.57ZM791.302 1052.82C791.236 1053.93 790.289 1054.77 789.187 1054.7C786.87 1054.57 784.541 1054.45 782.197 1054.33C781.094 1054.28 780.242 1053.34 780.295 1052.24C780.347 1051.13 781.284 1050.28 782.387 1050.34C784.747 1050.45 787.092 1050.58 789.424 1050.71C790.527 1050.77 791.368 1051.72 791.302 1052.82ZM681.24 1052.39C681.292 1053.49 680.44 1054.43 679.336 1054.48C677.005 1054.6 674.663 1054.72 672.31 1054.85C671.207 1054.91 670.263 1054.06 670.201 1052.96C670.139 1051.86 670.983 1050.91 672.086 1050.85C674.451 1050.72 676.805 1050.6 679.149 1050.49C680.252 1050.43 681.189 1051.29 681.24 1052.39ZM158.656 1056.77C158.295 1057.82 157.156 1058.37 156.114 1058C153.909 1057.23 151.73 1056.44 149.576 1055.63C148.542 1055.25 148.022 1054.09 148.414 1053.06C148.807 1052.03 149.961 1051.51 150.996 1051.89C153.113 1052.68 155.255 1053.46 157.422 1054.22C158.464 1054.59 159.018 1055.73 158.656 1056.77ZM813.268 1054.41C813.175 1055.51 812.207 1056.32 811.107 1056.23C808.753 1056.04 806.384 1055.85 804 1055.68C802.899 1055.6 802.069 1054.64 802.148 1053.54C802.228 1052.43 803.185 1051.61 804.286 1051.69C806.687 1051.86 809.073 1052.05 811.444 1052.25C812.545 1052.34 813.362 1053.31 813.268 1054.41ZM659.328 1053.62C659.4 1054.72 658.565 1055.67 657.463 1055.75C655.135 1055.9 652.798 1056.06 650.451 1056.23C649.349 1056.31 648.39 1055.49 648.309 1054.39C648.227 1053.28 649.054 1052.32 650.156 1052.24C652.515 1052.07 654.864 1051.91 657.203 1051.75C658.305 1051.68 659.257 1052.52 659.328 1053.62ZM637.206 1055.25C637.297 1056.36 636.479 1057.32 635.378 1057.41C633.116 1057.6 630.846 1057.8 628.567 1058.01C627.466 1058.1 626.494 1057.29 626.394 1056.19C626.294 1055.09 627.104 1054.12 628.204 1054.02C630.495 1053.82 632.776 1053.62 635.048 1053.43C636.149 1053.33 637.115 1054.15 637.206 1055.25ZM835.123 1056.55C835.001 1057.64 834.012 1058.43 832.914 1058.31C830.613 1058.06 828.298 1057.82 825.967 1057.59C824.867 1057.48 824.063 1056.5 824.171 1055.4C824.278 1054.3 825.257 1053.5 826.356 1053.61C828.705 1053.84 831.038 1054.09 833.357 1054.34C834.455 1054.46 835.246 1055.45 835.123 1056.55ZM615.444 1057.23C615.553 1058.33 614.751 1059.31 613.652 1059.42C611.297 1059.66 608.934 1059.9 606.561 1060.16C605.462 1060.27 604.476 1059.48 604.358 1058.38C604.24 1057.28 605.035 1056.29 606.134 1056.18C608.517 1055.93 610.892 1055.68 613.257 1055.44C614.356 1055.33 615.335 1056.14 615.444 1057.23ZM856.878 1059.27C856.725 1060.37 855.714 1061.13 854.62 1060.98C852.374 1060.67 850.113 1060.37 847.836 1060.08C846.74 1059.94 845.963 1058.94 846.101 1057.84C846.238 1056.75 847.238 1055.97 848.334 1056.11C850.63 1056.41 852.91 1056.71 855.174 1057.02C856.269 1057.17 857.031 1058.18 856.878 1059.27ZM593.502 1059.59C593.628 1060.68 592.841 1061.68 591.744 1061.8C589.462 1062.07 587.171 1062.34 584.873 1062.62C583.776 1062.76 582.778 1061.98 582.643 1060.88C582.509 1059.78 583.288 1058.79 584.385 1058.65C586.694 1058.37 588.994 1058.1 591.286 1057.83C592.383 1057.7 593.375 1058.49 593.502 1059.59ZM179.57 1063.37C179.266 1064.43 178.158 1065.05 177.098 1064.74C174.861 1064.09 172.647 1063.42 170.456 1062.74C169.4 1062.42 168.816 1061.29 169.147 1060.24C169.479 1059.19 170.602 1058.6 171.657 1058.93C173.816 1059.6 175.997 1060.25 178.2 1060.89C179.26 1061.2 179.874 1062.31 179.57 1063.37ZM878.679 1062.66C878.493 1063.75 877.46 1064.48 876.371 1064.29C874.122 1063.92 871.857 1063.55 869.575 1063.19C868.484 1063.02 867.737 1061.99 867.906 1060.9C868.076 1059.81 869.098 1059.06 870.189 1059.23C872.491 1059.6 874.776 1059.97 877.044 1060.35C878.133 1060.53 878.865 1061.57 878.679 1062.66ZM571.658 1062.27C571.801 1063.37 571.029 1064.37 569.934 1064.52C567.597 1064.82 565.252 1065.14 562.898 1065.46C561.804 1065.61 560.794 1064.85 560.643 1063.75C560.492 1062.66 561.257 1061.65 562.351 1061.5C564.715 1061.18 567.07 1060.86 569.416 1060.55C570.511 1060.41 571.515 1061.18 571.658 1062.27ZM900.359 1066.71C900.138 1067.8 899.081 1068.49 897.998 1068.28C895.745 1067.82 893.474 1067.38 891.184 1066.94C890.099 1066.74 889.383 1065.69 889.587 1064.61C889.79 1063.52 890.835 1062.81 891.92 1063.01C894.231 1063.45 896.524 1063.9 898.798 1064.36C899.881 1064.58 900.579 1065.63 900.359 1066.71ZM549.892 1065.28C550.051 1066.37 549.294 1067.38 548.201 1067.54C545.909 1067.88 543.61 1068.22 541.303 1068.57C540.211 1068.74 539.19 1067.99 539.024 1066.89C538.858 1065.8 539.608 1064.78 540.7 1064.62C543.017 1064.27 545.325 1063.92 547.626 1063.58C548.719 1063.42 549.734 1064.18 549.892 1065.28ZM200.802 1068.9C200.549 1069.97 199.472 1070.64 198.398 1070.38C196.129 1069.84 193.881 1069.28 191.653 1068.71C190.583 1068.44 189.941 1067.35 190.219 1066.28C190.497 1065.21 191.588 1064.57 192.659 1064.84C194.857 1065.4 197.075 1065.95 199.313 1066.49C200.387 1066.74 201.054 1067.82 200.802 1068.9ZM528.038 1068.61C528.212 1069.7 527.468 1070.72 526.378 1070.9C525.194 1071.09 524.009 1071.28 522.822 1071.47C521.641 1071.67 520.463 1071.86 519.286 1072.05C518.195 1072.22 517.17 1071.48 516.997 1070.39C516.824 1069.29 517.568 1068.27 518.659 1068.1C519.83 1067.91 521.003 1067.72 522.178 1067.53C523.37 1067.33 524.56 1067.14 525.748 1066.95C526.838 1066.77 527.864 1067.52 528.038 1068.61ZM921.867 1071.49C921.609 1072.56 920.529 1073.22 919.454 1072.97C917.207 1072.43 914.939 1071.91 912.652 1071.4C911.574 1071.15 910.893 1070.09 911.133 1069.01C911.372 1067.93 912.44 1067.25 913.517 1067.49C915.828 1068.01 918.118 1068.54 920.388 1069.08C921.463 1069.33 922.125 1070.41 921.867 1071.49ZM222.278 1073.45C222.072 1074.53 221.025 1075.25 219.941 1075.04C217.637 1074.59 215.351 1074.13 213.084 1073.66C212.002 1073.44 211.312 1072.37 211.541 1071.29C211.77 1070.21 212.831 1069.52 213.912 1069.75C216.152 1070.21 218.41 1070.67 220.687 1071.11C221.772 1071.32 222.484 1072.36 222.278 1073.45ZM506.074 1072.07C506.238 1073.16 505.485 1074.18 504.393 1074.34C502.095 1074.68 499.804 1075.02 497.521 1075.34C496.427 1075.5 495.416 1074.74 495.261 1073.64C495.107 1072.55 495.868 1071.54 496.962 1071.38C499.234 1071.06 501.513 1070.73 503.799 1070.39C504.892 1070.23 505.91 1070.98 506.074 1072.07ZM943.176 1077.02C942.879 1078.08 941.776 1078.7 940.711 1078.41C938.481 1077.79 936.23 1077.19 933.956 1076.59C932.888 1076.31 932.246 1075.22 932.523 1074.15C932.801 1073.08 933.892 1072.43 934.961 1072.72C937.259 1073.32 939.534 1073.93 941.788 1074.56C942.853 1074.85 943.474 1075.95 943.176 1077.02ZM484.498 1075.11C484.643 1076.21 483.873 1077.22 482.777 1077.36C480.416 1077.67 478.063 1077.97 475.719 1078.26C474.623 1078.39 473.625 1077.61 473.49 1076.52C473.356 1075.42 474.135 1074.42 475.231 1074.29C477.564 1074 479.904 1073.7 482.253 1073.39C483.349 1073.25 484.354 1074.02 484.498 1075.11ZM243.952 1077.12C243.789 1078.21 242.771 1078.96 241.679 1078.8C239.333 1078.44 237.005 1078.07 234.694 1077.68C233.604 1077.5 232.871 1076.47 233.055 1075.38C233.239 1074.29 234.272 1073.56 235.361 1073.74C237.647 1074.12 239.95 1074.49 242.27 1074.84C243.362 1075.01 244.115 1076.03 243.952 1077.12ZM462.602 1077.8C462.727 1078.9 461.938 1079.89 460.84 1080.01C458.562 1080.27 456.293 1080.51 454.031 1080.75C452.932 1080.87 451.949 1080.07 451.835 1078.97C451.721 1077.87 452.52 1076.89 453.618 1076.77C455.867 1076.54 458.125 1076.29 460.39 1076.04C461.488 1075.92 462.478 1076.71 462.602 1077.8ZM265.735 1079.97C265.611 1081.07 264.62 1081.86 263.523 1081.73C261.149 1081.46 258.79 1081.17 256.448 1080.87C255.353 1080.73 254.581 1079.72 254.725 1078.63C254.868 1077.53 255.873 1076.76 256.968 1076.9C259.287 1077.2 261.622 1077.48 263.973 1077.76C265.07 1077.89 265.859 1078.88 265.735 1079.97ZM440.797 1080.06C440.9 1081.16 440.092 1082.14 438.992 1082.24C436.656 1082.45 434.33 1082.66 432.012 1082.86C430.912 1082.95 429.945 1082.13 429.853 1081.03C429.761 1079.93 430.579 1078.96 431.68 1078.87C433.984 1078.67 436.297 1078.47 438.619 1078.25C439.719 1078.15 440.694 1078.96 440.797 1080.06ZM964.246 1083.36C963.906 1084.41 962.779 1084.99 961.727 1084.65C959.53 1083.95 957.309 1083.26 955.063 1082.57C954.007 1082.25 953.407 1081.13 953.725 1080.08C954.043 1079.02 955.159 1078.42 956.216 1078.74C958.487 1079.43 960.734 1080.13 962.957 1080.84C964.009 1081.18 964.586 1082.31 964.246 1083.36ZM287.48 1082.07C287.391 1083.18 286.427 1084 285.326 1083.9C282.979 1083.71 280.646 1083.5 278.327 1083.29C277.228 1083.18 276.422 1082.21 276.529 1081.11C276.635 1080.01 277.612 1079.2 278.712 1079.3C281.009 1079.52 283.321 1079.72 285.647 1079.92C286.748 1080.01 287.568 1080.97 287.48 1082.07ZM419.042 1081.88C419.122 1082.98 418.294 1083.94 417.193 1084.02C414.827 1084.18 412.471 1084.34 410.125 1084.5C409.023 1084.57 408.073 1083.73 408.004 1082.63C407.936 1081.52 408.774 1080.57 409.876 1080.5C412.208 1080.35 414.549 1080.19 416.901 1080.03C418.003 1079.95 418.961 1080.78 419.042 1081.88ZM309.326 1083.5C309.27 1084.6 308.331 1085.45 307.228 1085.39C304.913 1085.27 302.611 1085.14 300.322 1084.99C299.22 1084.93 298.384 1083.97 298.456 1082.87C298.528 1081.77 299.479 1080.93 300.582 1081C302.851 1081.14 305.133 1081.27 307.429 1081.4C308.532 1081.45 309.381 1082.39 309.326 1083.5ZM397.028 1083.25C397.085 1084.35 396.236 1085.29 395.133 1085.35C392.837 1085.46 390.552 1085.57 388.275 1085.66C387.172 1085.71 386.241 1084.85 386.197 1083.75C386.152 1082.64 387.011 1081.71 388.115 1081.66C390.376 1081.57 392.647 1081.47 394.928 1081.35C396.031 1081.3 396.971 1082.15 397.028 1083.25ZM331.275 1084.29C331.251 1085.39 330.336 1086.27 329.231 1086.24C326.914 1086.18 324.609 1086.12 322.317 1086.04C321.213 1086 320.35 1085.08 320.389 1083.97C320.429 1082.87 321.356 1082 322.46 1082.04C324.734 1082.12 327.021 1082.18 329.32 1082.24C330.424 1082.27 331.299 1083.18 331.275 1084.29ZM375.134 1084.12C375.165 1085.23 374.296 1086.15 373.192 1086.18C370.846 1086.24 368.511 1086.29 366.187 1086.34C365.082 1086.36 364.172 1085.47 364.154 1084.37C364.136 1083.27 365.017 1082.36 366.121 1082.34C368.429 1082.29 370.748 1082.24 373.078 1082.18C374.182 1082.15 375.103 1083.02 375.134 1084.12ZM353.334 1084.48C353.338 1085.59 352.447 1086.49 351.342 1086.49C348.951 1086.49 346.572 1086.49 344.204 1086.47C343.1 1086.46 342.213 1085.56 342.222 1084.46C342.232 1083.35 343.135 1082.46 344.24 1082.47C346.59 1082.49 348.952 1082.49 351.326 1082.49C352.43 1082.49 353.329 1083.38 353.334 1084.48ZM985.016 1090.56C984.631 1091.6 983.48 1092.12 982.443 1091.74C980.295 1090.96 978.121 1090.17 975.921 1089.4C974.878 1089.04 974.326 1087.9 974.687 1086.85C975.049 1085.81 976.189 1085.26 977.231 1085.62C979.459 1086.41 981.661 1087.2 983.836 1087.99C984.873 1088.37 985.401 1089.53 985.016 1090.56ZM1005.4 1098.68C1004.97 1099.7 1003.8 1100.17 1002.78 1099.74C1000.7 1098.86 998.591 1098 996.455 1097.14C995.431 1096.72 994.93 1095.56 995.339 1094.53C995.747 1093.51 996.911 1093.01 997.935 1093.42C1000.1 1094.29 1002.24 1095.17 1004.35 1096.06C1005.36 1096.49 1005.84 1097.66 1005.4 1098.68ZM1025.51 1107.86C1025.02 1108.85 1023.83 1109.26 1022.83 1108.78C1020.78 1107.79 1018.69 1106.8 1016.57 1105.82C1015.57 1105.36 1015.12 1104.17 1015.58 1103.17C1016.04 1102.16 1017.23 1101.72 1018.23 1102.19C1020.38 1103.18 1022.5 1104.18 1024.59 1105.19C1025.58 1105.67 1025.99 1106.87 1025.51 1107.86ZM1045.03 1118.1C1044.48 1119.06 1043.26 1119.41 1042.3 1118.87C1040.28 1117.75 1038.22 1116.63 1036.13 1115.52C1035.15 1115 1034.78 1113.79 1035.29 1112.81C1035.8 1111.84 1037.01 1111.46 1037.99 1111.98C1040.12 1113.11 1042.21 1114.24 1044.26 1115.38C1045.23 1115.92 1045.57 1117.14 1045.03 1118.1ZM1063.77 1129.45C1063.17 1130.38 1061.93 1130.64 1061 1130.04C1059.11 1128.82 1057.17 1127.61 1055.19 1126.39C1054.25 1125.82 1053.95 1124.59 1054.52 1123.64C1055.09 1122.7 1056.32 1122.39 1057.26 1122.97C1059.28 1124.21 1061.25 1125.45 1063.19 1126.69C1064.12 1127.29 1064.38 1128.53 1063.77 1129.45ZM1081.83 1142.19C1081.16 1143.07 1079.9 1143.23 1079.02 1142.57C1077.2 1141.2 1075.33 1139.82 1073.41 1138.45C1072.51 1137.8 1072.29 1136.56 1072.93 1135.65C1073.56 1134.75 1074.81 1134.53 1075.71 1135.18C1077.68 1136.58 1079.59 1137.99 1081.45 1139.39C1082.34 1140.06 1082.5 1141.31 1081.83 1142.19ZM1098.71 1156.32C1097.97 1157.13 1096.7 1157.19 1095.88 1156.45C1094.21 1154.94 1092.48 1153.42 1090.68 1151.89C1089.84 1151.18 1089.73 1149.91 1090.44 1149.07C1091.15 1148.22 1092.41 1148.11 1093.25 1148.82C1095.09 1150.39 1096.87 1151.95 1098.59 1153.5C1099.41 1154.24 1099.46 1155.51 1098.71 1156.32ZM1114.04 1172.11C1113.2 1172.82 1111.94 1172.73 1111.21 1171.9C1109.75 1170.23 1108.2 1168.54 1106.57 1166.83C1105.81 1166.03 1105.82 1164.76 1106.61 1163.99C1107.4 1163.22 1108.67 1163.23 1109.43 1164.03C1111.12 1165.81 1112.73 1167.56 1114.25 1169.29C1114.98 1170.12 1114.88 1171.39 1114.04 1172.11ZM1126.9 1189.91C1125.95 1190.46 1124.73 1190.14 1124.15 1189.19C1123.03 1187.35 1121.78 1185.45 1120.41 1183.5C1119.77 1182.6 1119.97 1181.35 1120.86 1180.69C1121.75 1180.04 1123 1180.24 1123.64 1181.14C1125.1 1183.21 1126.42 1185.23 1127.61 1187.19C1128.19 1188.13 1127.86 1189.36 1126.9 1189.91ZM1131.33 1205.45C1131.11 1204.47 1130.82 1203.43 1130.46 1202.35C1130.12 1201.3 1130.63 1200.15 1131.67 1199.76C1132.7 1199.37 1133.86 1199.89 1134.21 1200.94C1134.62 1202.18 1134.96 1203.39 1135.23 1204.55C1135.5 1205.72 1135.79 1206.93 1136.09 1208.17C1136.35 1209.24 1135.71 1210.33 1134.64 1210.6C1133.56 1210.87 1132.48 1210.22 1132.21 1209.15C1131.9 1207.88 1131.61 1206.65 1131.33 1205.45ZM1140.78 1232.88C1139.71 1233.19 1138.61 1232.58 1138.3 1231.52C1137.59 1229.03 1136.89 1226.59 1136.23 1224.22C1135.93 1223.16 1136.55 1222.05 1137.62 1221.76C1138.68 1221.46 1139.78 1222.08 1140.08 1223.15C1140.74 1225.51 1141.43 1227.93 1142.14 1230.41C1142.45 1231.47 1141.84 1232.58 1140.78 1232.88ZM1147.16 1255.1C1146.1 1255.4 1144.99 1254.78 1144.69 1253.72C1144 1251.28 1143.31 1248.86 1142.62 1246.47C1142.31 1245.41 1142.92 1244.3 1143.99 1243.99C1145.05 1243.69 1146.16 1244.3 1146.46 1245.36C1147.15 1247.76 1147.85 1250.18 1148.54 1252.63C1148.84 1253.69 1148.22 1254.8 1147.16 1255.1ZM1153.18 1277.42C1152.11 1277.7 1151.02 1277.05 1150.74 1275.98C1150.12 1273.54 1149.48 1271.12 1148.84 1268.7C1148.55 1267.63 1149.18 1266.53 1150.25 1266.24C1151.31 1265.95 1152.41 1266.58 1152.7 1267.65C1153.35 1270.09 1153.99 1272.54 1154.62 1275C1154.9 1276.07 1154.25 1277.15 1153.18 1277.42ZM1158.29 1299.97C1157.21 1300.19 1156.16 1299.48 1155.94 1298.4C1155.45 1295.97 1154.92 1293.52 1154.37 1291.06C1154.13 1289.98 1154.81 1288.91 1155.88 1288.66C1156.96 1288.42 1158.03 1289.09 1158.27 1290.17C1158.83 1292.67 1159.36 1295.15 1159.86 1297.63C1160.08 1298.71 1159.38 1299.76 1158.29 1299.97ZM1161.74 1322.81C1160.64 1322.91 1159.66 1322.11 1159.55 1321.01C1159.29 1318.59 1158.97 1316.13 1158.61 1313.63C1158.45 1312.54 1159.2 1311.52 1160.29 1311.35C1161.38 1311.18 1162.41 1311.93 1162.56 1313.03C1162.94 1315.59 1163.26 1318.13 1163.53 1320.63C1163.65 1321.72 1162.84 1322.7 1161.74 1322.81ZM1161.96 1345.88C1160.86 1345.77 1160.06 1344.79 1160.15 1343.68C1160.33 1341.34 1160.43 1338.9 1160.43 1336.38C1160.43 1335.28 1161.31 1334.37 1162.42 1334.35C1163.52 1334.33 1164.43 1335.21 1164.43 1336.32C1164.43 1338.98 1164.33 1341.58 1164.13 1344.1C1164.04 1345.2 1163.05 1346 1161.96 1345.88ZM1154.84 1367.63C1153.93 1367 1153.71 1365.75 1154.28 1364.8C1155.42 1362.9 1156.39 1360.81 1157.2 1358.55C1157.57 1357.51 1158.69 1356.91 1159.74 1357.23C1160.8 1357.56 1161.4 1358.68 1161.03 1359.72C1160.1 1362.36 1158.96 1364.83 1157.57 1367.1C1156.99 1368.04 1155.74 1368.26 1154.84 1367.63ZM1141.28 1378C1140.9 1376.96 1141.44 1375.82 1142.45 1375.37C1142.88 1375.18 1143.3 1374.98 1143.72 1374.77C1144.7 1374.27 1145.93 1374.56 1146.5 1375.5C1147.08 1376.45 1146.78 1377.68 1145.8 1378.19C1145.16 1378.53 1144.5 1378.84 1143.82 1379.14C1142.81 1379.58 1141.66 1379.04 1141.28 1378Z" fill="#A77AE8" fill-opacity="0.25"/>
</svg>
