<svg width="21" height="21" viewBox="0 0 21 21" fill="none" xmlns="http://www.w3.org/2000/svg">
<path d="M0.977558 19.9484L0.976172 19.9566V19.965C0.976172 20.2554 1.21136 20.4906 1.50193 20.4906H20.3189C20.6092 20.4906 20.8447 20.2554 20.8447 19.965V19.9558L20.843 19.9467L18.2063 5.74268C18.2011 5.45672 17.9678 5.2268 17.6807 5.2268H14.5467V4.27408C14.5467 2.0775 12.7599 0.290625 10.5633 0.290625C8.36663 0.290625 6.57988 2.0775 6.57988 4.27408V5.2268H3.89348C3.60625 5.2268 3.3727 5.45724 3.36801 5.74356L0.977558 19.9484ZM7.6308 4.27408C7.6308 2.6572 8.94649 1.34175 10.563 1.34175C12.1799 1.34175 13.4955 2.65745 13.4955 4.27408V5.2268H7.6308V4.27408ZM17.1729 6.27772L19.7719 19.4395H2.04679L4.40246 6.27772H6.5795V8.00039C6.37272 8.15848 6.23919 8.40768 6.23919 8.68834C6.23919 9.16644 6.62646 9.55432 7.10504 9.55432C7.58303 9.55432 7.97102 9.16682 7.97102 8.68834C7.97102 8.40738 7.83709 8.1584 7.63042 8.0004V6.27772H13.4957V8.00039C13.289 8.15846 13.1553 8.40764 13.1553 8.68834C13.1553 9.16646 13.5427 9.55432 14.0212 9.55432C14.4993 9.55432 14.8872 9.16681 14.8872 8.68834C14.8872 8.40735 14.7531 8.15839 14.5465 8.00041V6.27772H17.1729Z" fill="#555555" stroke="#555555" stroke-width="0.2"/>
</svg>
