<svg width="19" height="20" viewBox="0 0 19 20" fill="none" xmlns="http://www.w3.org/2000/svg">
<path fill-rule="evenodd" clip-rule="evenodd" d="M4.65111 4.10294C5.06794 1.45309 7.55397 -0.357127 10.2038 0.0597025C12.8537 0.476532 14.6639 2.96256 14.2471 5.61241C13.8302 8.26226 11.3442 10.0725 8.69434 9.65565C6.0445 9.23882 4.23428 6.75278 4.65111 4.10294ZM10.0078 1.30588C8.04619 0.99731 6.20585 2.33736 5.89728 4.29896C5.58872 6.26057 6.92877 8.1009 8.89037 8.40947C10.852 8.71804 12.6923 7.37799 13.0009 5.41638C13.3094 3.45478 11.9694 1.61444 10.0078 1.30588ZM1.28781 18.7385H17.6137C17.2935 14.915 14.0889 11.9159 10.1866 11.9159H8.71485C4.80834 11.9159 1.60789 14.9189 1.28781 18.7385ZM0 19.3692C0 14.5586 3.89842 10.6544 8.71485 10.6544H10.1866C14.9972 10.6544 18.9015 14.5528 18.9015 19.3692V20H0V19.3692Z" fill="#555555"/>
</svg>
