<svg width="22" height="22" viewBox="0 0 22 22" fill="none" xmlns="http://www.w3.org/2000/svg">
<path fill-rule="evenodd" clip-rule="evenodd" d="M21.5326 0.467435C22.1558 1.09068 22.1558 2.10117 21.5326 2.72441L13.257 11L21.5326 19.2756C22.1559 19.8988 22.1559 20.9093 21.5326 21.5326C20.9094 22.1558 19.8989 22.1558 19.2757 21.5326L11 13.2569L2.72441 21.5326C2.10117 22.1558 1.09068 22.1558 0.467436 21.5326C-0.155812 20.9093 -0.155812 19.8988 0.467435 19.2756L8.74306 11L0.467506 2.72441C-0.155742 2.10117 -0.155741 1.09068 0.467506 0.467435C1.09075 -0.155812 2.10124 -0.155812 2.72448 0.467436L11 8.74299L19.2756 0.467436C19.8988 -0.155812 20.9093 -0.155812 21.5326 0.467435Z" fill="#4F4758"/>
</svg>
