<svg width="853" height="106" viewBox="0 0 853 106" fill="none" xmlns="http://www.w3.org/2000/svg">
<path d="M79.1875 71.9844C77.9219 82.8125 73.9141 91.1797 67.1641 97.0859C60.4609 102.945 51.5312 105.875 40.375 105.875C28.2812 105.875 18.5781 101.539 11.2656 92.8672C4 84.1953 0.367188 72.5938 0.367188 58.0625V48.2188C0.367188 38.7031 2.05469 30.3359 5.42969 23.1172C8.85156 15.8984 13.6797 10.3672 19.9141 6.52344C26.1484 2.63281 33.3672 0.6875 41.5703 0.6875C52.4453 0.6875 61.1641 3.73437 67.7266 9.82812C74.2891 15.875 78.1094 24.2656 79.1875 35H65.6172C64.4453 26.8438 61.8906 20.9375 57.9531 17.2812C54.0625 13.625 48.6016 11.7969 41.5703 11.7969C32.9453 11.7969 26.1719 14.9844 21.25 21.3594C16.375 27.7344 13.9375 36.8047 13.9375 48.5703V58.4844C13.9375 69.5938 16.2578 78.4297 20.8984 84.9922C25.5391 91.5547 32.0312 94.8359 40.375 94.8359C47.875 94.8359 53.6172 93.1484 57.6016 89.7734C61.6328 86.3516 64.3047 80.4219 65.6172 71.9844H79.1875ZM175.091 77.75H132.2L122.567 104.469H108.646L147.739 2.09375H159.552L198.716 104.469H184.864L175.091 77.75ZM136.278 66.6406H171.083L153.646 18.7578L136.278 66.6406ZM294.971 13.2031H262.065V104.469H248.635V13.2031H215.799V2.09375H294.971V13.2031ZM388.906 57.1484H344.538V93.4297H396.077V104.469H331.038V2.09375H395.374V13.2031H344.538V46.1094H388.906V57.1484ZM509.348 91.0391C505.879 96.0078 501.028 99.7344 494.793 102.219C488.606 104.656 481.387 105.875 473.137 105.875C464.793 105.875 457.387 103.93 450.918 100.039C444.45 96.1016 439.434 90.5234 435.872 83.3047C432.356 76.0859 430.551 67.7188 430.457 58.2031V49.2734C430.457 33.8516 434.043 21.8984 441.215 13.4141C448.434 4.92969 458.559 0.6875 471.59 0.6875C482.278 0.6875 490.879 3.42969 497.395 8.91406C503.911 14.3516 507.895 22.0859 509.348 32.1172H495.848C493.317 18.5703 485.254 11.7969 471.661 11.7969C462.614 11.7969 455.747 14.9844 451.059 21.3594C446.418 27.6875 444.075 36.875 444.028 48.9219V57.2891C444.028 68.7734 446.653 77.9141 451.903 84.7109C457.153 91.4609 464.254 94.8359 473.207 94.8359C478.27 94.8359 482.7 94.2734 486.497 93.1484C490.293 92.0234 493.434 90.125 495.918 87.4531V64.4609H472.223V53.4922H509.348V91.0391ZM631.548 56.5859C631.548 66.6172 629.861 75.3828 626.486 82.8828C623.111 90.3359 618.33 96.0312 612.142 99.9688C605.955 103.906 598.736 105.875 590.486 105.875C582.423 105.875 575.275 103.906 569.041 99.9688C562.806 95.9844 557.955 90.3359 554.486 83.0234C551.064 75.6641 549.306 67.1562 549.213 57.5V50.1172C549.213 40.2734 550.923 31.5781 554.345 24.0312C557.767 16.4844 562.595 10.7188 568.83 6.73438C575.111 2.70313 582.283 0.6875 590.345 0.6875C598.548 0.6875 605.767 2.67969 612.002 6.66406C618.283 10.6016 623.111 16.3438 626.486 23.8906C629.861 31.3906 631.548 40.1328 631.548 50.1172V56.5859ZM618.119 49.9766C618.119 37.8359 615.681 28.5312 610.806 22.0625C605.931 15.5469 599.111 12.2891 590.345 12.2891C581.814 12.2891 575.088 15.5469 570.166 22.0625C565.291 28.5312 562.783 37.5312 562.642 49.0625V56.5859C562.642 68.3516 565.103 77.6094 570.025 84.3594C574.994 91.0625 581.814 94.4141 590.486 94.4141C599.205 94.4141 605.955 91.25 610.736 84.9219C615.517 78.5469 617.978 69.4297 618.119 57.5703V49.9766ZM710.225 63.0547H686.178V104.469H672.608V2.09375H706.499C718.03 2.09375 726.889 4.71875 733.077 9.96875C739.311 15.2188 742.428 22.8594 742.428 32.8906C742.428 39.2656 740.694 44.8203 737.225 49.5547C733.803 54.2891 729.022 57.8281 722.882 60.1719L746.928 103.625V104.469H732.444L710.225 63.0547ZM686.178 52.0156H706.921C713.624 52.0156 718.944 50.2812 722.882 46.8125C726.866 43.3438 728.858 38.7031 728.858 32.8906C728.858 26.5625 726.96 21.7109 723.163 18.3359C719.413 14.9609 713.975 13.25 706.85 13.2031H686.178V52.0156ZM810.137 53.4922L836.855 2.09375H852.183L816.887 66.2891V104.469H803.387V66.2891L768.09 2.09375H783.558L810.137 53.4922Z" fill="#F0F0F0"/>
</svg>
