<svg width="278" height="224" viewBox="0 0 278 224" fill="none" xmlns="http://www.w3.org/2000/svg">
<path d="M25.8998 49.7749C-1.16991 64.7496 1.90182 105.69 6.8214 124.288C26.6198 178.644 105.813 221.12 187.886 203.122C269.959 185.123 283.277 102.69 273.198 69.9331C263.119 37.176 254.12 38.2557 245.121 33.9361C236.122 29.6165 236.122 49.7749 231.082 58.414C226.042 67.0531 140.01 69.2132 103.293 65.6135C66.5761 62.0138 59.7368 31.0565 25.8998 49.7749Z" stroke="#D3B9F8" stroke-width="2.5"/>
<path d="M18.34 83.2518C-15.3531 102.258 7.42089 152.126 23.0195 174.684C66.2157 239.838 208.764 233.719 249.08 152.726C289.397 71.733 254.12 29.2564 245.48 18.0974C236.841 6.93837 188.245 -26.8987 147.209 42.5753C106.173 112.049 60.4563 59.4938 18.34 83.2518Z" fill="#D3B9F8"/>
<path d="M219.468 118.133L144.467 52.3023C141.421 49.6288 136.857 49.6554 133.843 52.3643L60.6542 118.133V173.604H219.76L219.468 118.133Z" fill="#37106F"/>
<rect x="72.8929" y="74.9732" width="134.628" height="123.829" rx="8" fill="white"/>
<path fill-rule="evenodd" clip-rule="evenodd" d="M111.77 92.0916C111.77 90.9871 110.875 90.0916 109.77 90.0916H90.012C88.9074 90.0916 88.012 90.9871 88.012 92.0916L88.012 111.85C88.012 112.954 88.9074 113.85 90.012 113.85H109.77C110.875 113.85 111.77 112.954 111.77 111.85V92.0916ZM88.012 85.772C85.6263 85.772 83.6924 87.706 83.6924 90.0916V113.85C83.6924 116.235 85.6263 118.169 88.012 118.169H111.77C114.156 118.169 116.09 116.235 116.09 113.85V90.0916C116.09 87.706 114.156 85.772 111.77 85.772H88.012Z" fill="#7E50BF" fill-opacity="0.34"/>
<path fill-rule="evenodd" clip-rule="evenodd" d="M111.77 129.529C111.77 128.424 110.874 127.529 109.77 127.529H90.0116C88.9071 127.529 88.0116 128.424 88.0116 129.529L88.0116 149.286C88.0116 150.391 88.9071 151.286 90.0116 151.286H109.77C110.874 151.286 111.77 150.391 111.77 149.286V129.529ZM88.0116 123.209C85.626 123.209 83.692 125.143 83.692 127.529V151.286C83.692 153.672 85.626 155.606 88.0116 155.606H111.77C114.155 155.606 116.089 153.672 116.089 151.286V127.529C116.089 125.143 114.155 123.209 111.77 123.209H88.0116Z" fill="#7E50BF" fill-opacity="0.34"/>
<path fill-rule="evenodd" clip-rule="evenodd" d="M108.747 91.8313C107.919 91.2822 106.802 91.5088 106.253 92.3374L97.6568 105.309L95.6318 102.253C95.0827 101.425 93.9659 101.198 93.1372 101.747C92.3086 102.296 92.082 103.413 92.6311 104.242L96.078 109.443C96.4397 109.989 97.0476 110.273 97.6573 110.247C98.2667 110.273 98.8742 109.989 99.2357 109.443L109.253 94.3259C109.802 93.4972 109.576 92.3804 108.747 91.8313Z" fill="#5D2CA2"/>
<path fill-rule="evenodd" clip-rule="evenodd" d="M108.747 129.268C107.919 128.719 106.802 128.946 106.253 129.775L97.6568 142.746L95.6318 139.69C95.0827 138.862 93.9659 138.635 93.1372 139.184C92.3086 139.733 92.082 140.85 92.6311 141.679L96.078 146.88C96.4397 147.426 97.0476 147.711 97.6573 147.684C98.2667 147.71 98.8742 147.426 99.2357 146.88L109.253 131.763C109.802 130.934 109.576 129.818 108.747 129.268Z" fill="#5D2CA2"/>
<rect x="128.328" y="92.9717" width="56.8751" height="4.31963" rx="2.15981" fill="#D3C4E9"/>
<rect x="128.328" y="130.409" width="56.8751" height="4.31963" rx="2.15981" fill="#D3C4E9"/>
<rect x="128.328" y="105.931" width="69.834" height="4.31963" rx="2.15981" fill="#5D2CA2"/>
<rect x="128.328" y="143.367" width="69.834" height="4.31963" rx="2.15981" fill="#5D2CA2"/>
<path fill-rule="evenodd" clip-rule="evenodd" d="M58.4944 124.031V215.886C58.4944 220.305 62.0761 223.886 66.4944 223.886H140.463H140.464H213.92C218.338 223.886 221.92 220.305 221.92 215.886V124.031C221.92 119.613 218.338 116.024 213.921 116.149C212.048 116.202 210.106 116.279 208.412 116.39C187.736 117.746 160.067 147.562 146.638 162.033C145.199 163.583 143.925 164.956 142.839 166.1C141.356 167.664 140.486 169.702 140.464 171.854C140.442 169.702 139.572 167.664 138.088 166.1C137.002 164.956 135.728 163.583 134.29 162.033C120.86 147.562 93.1911 117.746 72.5155 116.39C70.7062 116.271 68.5576 116.192 66.4929 116.139C62.0761 116.025 58.4944 119.613 58.4944 124.031Z" fill="#5D2CA3"/>
<g style="mix-blend-mode:darken">
<path fill-rule="evenodd" clip-rule="evenodd" d="M58.4943 201.841V189.741C64.9167 186.028 125.844 153.049 125.844 153.049C127.081 154.338 127.768 155.065 127.768 155.065L138.774 165.819C139.488 166.517 140.058 167.335 140.464 168.227C140.87 167.335 141.44 166.517 142.154 165.819L153.161 155.065C153.161 155.065 153.803 154.384 154.966 153.172C154.966 153.172 215.346 185.94 221.92 189.741V201.557L140.464 197.649H140.463L58.4943 201.841Z" fill="#51288B"/>
</g>
<path d="M221.92 198.325L144.245 150.294C141.662 148.697 138.397 148.7 135.817 150.303L58.4941 198.325V216C58.4941 220.419 62.0759 224 66.4941 224H213.92C218.338 224 221.92 220.419 221.92 216V198.325Z" fill="#7E50BF"/>
<path fill-rule="evenodd" clip-rule="evenodd" d="M103.13 203.562H113.849V202.111H103.13V203.562ZM103.13 193.821H113.849V192.37H103.13V193.821ZM103.13 184.708H113.849V183.242H103.13V184.708ZM159.265 194.505C159.265 196.375 158.939 198.017 158.288 199.431C157.646 200.846 156.725 201.934 155.525 202.697C154.324 203.46 152.938 203.842 151.366 203.842C148.993 203.842 147.077 202.995 145.616 201.302C144.155 199.599 143.425 197.305 143.425 194.421V192.328C143.425 190.476 143.75 188.839 144.402 187.415C145.062 185.982 145.993 184.885 147.193 184.122C148.393 183.349 149.775 182.963 151.338 182.963C152.901 182.963 154.278 183.34 155.469 184.094C156.669 184.847 157.595 185.913 158.246 187.29C158.897 188.667 159.237 190.262 159.265 192.077V194.505ZM157.548 192.3C157.548 189.853 156.995 187.936 155.888 186.55C154.78 185.164 153.264 184.471 151.338 184.471C149.449 184.471 147.942 185.168 146.816 186.564C145.7 187.95 145.141 189.89 145.141 192.384V194.505C145.141 196.915 145.7 198.827 146.816 200.241C147.933 201.646 149.449 202.348 151.366 202.348C153.31 202.348 154.827 201.655 155.915 200.269C157.004 198.873 157.548 196.933 157.548 194.449V192.3ZM118.204 202.111H128.238V203.562H116.474V183.242H118.204V202.111ZM134.185 201.483L134.073 201.05L127.681 183.242H125.811L133.375 203.562H135.022L142.586 183.242H140.702L134.31 201.05L134.185 201.483ZM174.311 203.13C175.585 202.655 176.52 201.995 177.116 201.148V193.919H169.942V195.37H175.399V200.618C175.064 201.027 174.553 201.385 173.864 201.692C172.803 202.158 171.533 202.39 170.054 202.39C168.779 202.39 167.649 202.064 166.663 201.413C165.686 200.762 164.932 199.845 164.402 198.664C163.881 197.473 163.62 196.105 163.62 194.561V192.16C163.62 189.704 164.174 187.801 165.281 186.452C166.388 185.103 167.891 184.429 169.789 184.429C171.343 184.429 172.599 184.815 173.557 185.587C174.525 186.35 175.134 187.476 175.385 188.964H177.102C176.86 187.094 176.102 185.629 174.827 184.568C173.552 183.498 171.868 182.963 169.775 182.963C167.374 182.963 165.463 183.782 164.039 185.42C162.615 187.048 161.904 189.271 161.904 192.091V194.658C161.913 196.463 162.257 198.064 162.936 199.459C163.616 200.855 164.574 201.934 165.811 202.697C167.049 203.46 168.463 203.842 170.054 203.842C171.626 203.842 173.045 203.604 174.311 203.13Z" fill="#EADCFF"/>
<rect x="202.482" y="56.5515" width="2.15981" height="12.2389" rx="1.07991" transform="rotate(-7.91716 202.482 56.5515)" fill="#37106E"/>
<rect x="219.056" y="61.294" width="2.15981" height="12.2389" rx="1.07991" transform="rotate(45 219.056 61.294)" fill="#37106E"/>
<rect x="225.702" y="78.2167" width="2.15981" height="12.2389" rx="1.07991" transform="rotate(101.902 225.702 78.2167)" fill="#37106E"/>
<path d="M36.1761 75.3329L10.9783 67.4136L91.2514 44.0156L36.1761 75.3329Z" fill="#5D2CA2"/>
<path d="M37.976 98.3706L36.1761 75.3326L91.2514 44.0153L46.6152 81.4521L37.976 98.3706Z" fill="#37106E"/>
<path d="M72.5331 103.41L46.6154 81.4521L91.2515 44.0153L72.5331 103.41Z" fill="#7E50BF"/>
<path fill-rule="evenodd" clip-rule="evenodd" d="M76.7363 165.291C76.6458 164.802 76.9684 164.33 77.4613 164.266C78.2475 164.163 79.0456 164.114 79.8452 164.118C80.8602 164.124 81.8632 164.209 82.8367 164.375C83.3267 164.458 83.6314 164.941 83.5226 165.426C83.4138 165.911 82.9327 166.214 82.4422 166.133C81.5977 165.995 80.7239 165.923 79.835 165.918C79.1477 165.914 78.4629 165.954 77.7893 166.038C77.2961 166.1 76.8267 165.78 76.7363 165.291ZM67.5375 172.736C67.0602 172.597 66.7817 172.096 66.9606 171.632C67.5839 170.017 68.5729 168.659 69.8049 167.564C70.1763 167.233 70.7437 167.313 71.0443 167.709C71.3449 168.105 71.2641 168.666 70.8975 169.002C69.9499 169.869 69.194 170.914 68.6967 172.137C68.5095 172.597 68.0148 172.874 67.5375 172.736ZM89.9382 168.921C90.3049 168.586 90.8778 168.609 91.1801 169.003C92.3972 170.592 93.1534 172.548 93.2775 174.841C93.3044 175.337 92.8909 175.734 92.3939 175.725C91.897 175.717 91.5056 175.306 91.4726 174.81C91.3516 172.993 90.763 171.468 89.8454 170.223C89.5506 169.823 89.5714 169.256 89.9382 168.921ZM69.8146 184.673C69.3791 184.913 68.8305 184.755 68.6038 184.312C67.8248 182.792 67.2503 181.347 66.8616 179.979C66.7258 179.501 67.0292 179.016 67.5134 178.904C67.9975 178.792 68.479 179.094 68.6172 179.571C68.9655 180.775 69.4783 182.066 70.1815 183.444C70.4074 183.887 70.2501 184.434 69.8146 184.673ZM90.5348 182.845C90.9847 183.056 91.1795 183.593 90.9543 184.036C90.1609 185.597 89.152 187.24 87.9065 188.964C87.6155 189.367 87.0504 189.447 86.653 189.149C86.2555 188.85 86.1762 188.286 86.4669 187.883C87.6426 186.253 88.5863 184.715 89.3241 183.271C89.5502 182.828 90.0849 182.634 90.5348 182.845ZM77.3594 194.588C76.9992 194.93 76.4291 194.916 76.0909 194.552C74.9974 193.374 74.0069 192.229 73.1136 191.115C72.8026 190.728 72.8747 190.162 73.2675 189.858C73.6604 189.553 74.2251 189.625 74.5364 190.013C75.3916 191.077 76.3424 192.177 77.3952 193.312C77.7332 193.676 77.7195 194.245 77.3594 194.588ZM81.8299 194.78C82.189 195.123 82.2019 195.693 81.8543 196.049C81.2062 196.711 80.5269 197.383 79.8153 198.065C79.1642 198.689 78.3875 199.189 77.5131 199.573C77.0581 199.773 76.5453 199.516 76.3867 199.045C76.2281 198.574 76.4848 198.069 76.9354 197.859C77.5786 197.56 78.1238 197.193 78.57 196.766C79.2631 196.101 79.924 195.448 80.5538 194.804C80.9014 194.449 81.4707 194.436 81.8299 194.78ZM69.8974 199.587C69.8511 200.082 69.4123 200.447 68.9193 200.384C67.3931 200.189 65.7779 199.854 64.0994 199.382C63.6209 199.248 63.3534 198.744 63.4985 198.268C63.6435 197.793 64.1463 197.526 64.6249 197.66C66.1922 198.099 67.6872 198.409 69.0871 198.591C69.5799 198.655 69.9438 199.092 69.8974 199.587ZM83.5722 201.697C82.992 201.197 82.4288 200.701 81.8821 200.211C81.5121 199.879 81.4863 199.31 81.8214 198.943C82.1564 198.575 82.7253 198.55 83.0953 198.881C83.6293 199.36 84.1798 199.844 84.7472 200.333C85.3735 200.873 86.015 201.401 86.717 201.935C87.1127 202.236 87.2045 202.797 86.9137 203.2C86.623 203.603 86.0597 203.695 85.6637 203.395C84.9125 202.825 84.2309 202.264 83.5722 201.697ZM99.2622 209.885C99.0593 210.339 98.5266 210.542 98.074 210.337C96.2662 209.516 94.6922 208.76 93.3042 208.052C92.8615 207.827 92.692 207.282 92.9227 206.842C93.1533 206.402 93.6969 206.232 94.1397 206.458C95.4926 207.148 97.0329 207.888 98.8089 208.694C99.2615 208.899 99.4652 209.431 99.2622 209.885Z" fill="#B692EA"/>
<path fill-rule="evenodd" clip-rule="evenodd" d="M29.4559 108.351C29.0229 108.107 28.8692 107.558 29.1176 107.127C29.9381 105.705 30.7718 104.353 31.6039 103.081C31.8759 102.665 32.4353 102.555 32.8482 102.831C33.2611 103.108 33.3712 103.667 33.0993 104.083C32.2921 105.318 31.4828 106.63 30.6859 108.011C30.4374 108.441 29.889 108.595 29.4559 108.351ZM23.9821 120.071C23.5166 119.896 23.2798 119.378 23.4592 118.914C24.0379 117.419 24.655 115.959 25.3006 114.541C25.5065 114.088 26.0426 113.894 26.4928 114.105C26.9429 114.316 27.1366 114.851 26.9308 115.303C26.3047 116.68 25.7063 118.096 25.1452 119.545C24.9657 120.008 24.4477 120.245 23.9821 120.071ZM20.5719 132.542C20.0818 132.459 19.751 131.995 19.8411 131.506C20.1303 129.937 20.4795 128.385 20.8798 126.856C21.0056 126.375 21.5017 126.094 21.9809 126.226C22.46 126.358 22.7407 126.853 22.615 127.334C22.2301 128.807 21.8943 130.3 21.616 131.806C21.5257 132.295 21.0619 132.625 20.5719 132.542ZM19.9652 145.441C19.47 145.483 19.0333 145.116 19.0006 144.62C18.8949 143.02 18.8725 141.42 18.9244 139.827C18.9406 139.331 19.364 138.948 19.8603 138.973C20.3567 138.998 20.7381 139.42 20.7223 139.917C20.6739 141.432 20.6953 142.95 20.7942 144.467C20.8265 144.963 20.4604 145.399 19.9652 145.441ZM21.0295 155.221C20.7766 154.453 20.5482 153.682 20.3433 152.909C20.2159 152.428 20.5137 151.942 20.9968 151.825C21.4799 151.708 21.9652 152.005 22.093 152.485C22.2865 153.212 22.5015 153.937 22.739 154.658C22.9845 155.403 23.2405 156.139 23.5065 156.866C23.6773 157.333 23.4446 157.852 22.9801 158.029C22.5156 158.206 21.9952 157.973 21.8242 157.506C21.5486 156.754 21.2835 155.992 21.0295 155.221ZM28.7412 169.781C28.3171 170.04 27.7627 169.907 27.509 169.479C26.6966 168.111 25.9195 166.699 25.1822 165.241C24.9579 164.797 25.1429 164.258 25.5892 164.039C26.0355 163.821 26.5741 164.005 26.7986 164.449C27.5107 165.856 28.261 167.22 29.045 168.541C29.2986 168.968 29.1653 169.522 28.7412 169.781ZM36.5662 180.265C36.1971 180.598 35.6277 180.569 35.2994 180.195C34.2506 179.003 33.2263 177.758 32.2327 176.461C31.9304 176.067 32.0127 175.502 32.411 175.205C32.8093 174.908 33.3727 174.99 33.6752 175.384C34.6348 176.636 35.6236 177.838 36.636 178.99C36.9641 179.363 36.9353 179.932 36.5662 180.265ZM46.2054 189.123C45.9054 189.519 45.3406 189.598 44.9483 189.293C43.6987 188.32 42.4578 187.285 41.2335 186.188C40.8634 185.856 40.8399 185.286 41.1764 184.921C41.5128 184.555 42.0817 184.531 42.452 184.863C43.6333 185.921 44.8301 186.92 46.035 187.858C46.4271 188.163 46.5055 188.727 46.2054 189.123ZM57.3894 195.909C57.1801 196.36 56.6447 196.556 56.1974 196.34C54.7845 195.656 53.3533 194.889 51.9154 194.041C51.4874 193.788 51.3533 193.234 51.612 192.809C51.8707 192.385 52.4241 192.251 52.8523 192.504C54.2323 193.317 55.6037 194.052 56.9555 194.707C57.4027 194.924 57.5987 195.458 57.3894 195.909Z" fill="#7E50BF"/>
<path fill-rule="evenodd" clip-rule="evenodd" d="M199.194 178.465C200.111 178.416 200.987 178.457 201.82 178.583C202.311 178.657 202.613 179.144 202.501 179.628C202.389 180.112 201.905 180.41 201.413 180.343C200.746 180.252 200.039 180.222 199.29 180.262C198.612 180.298 197.974 180.37 197.374 180.474C196.885 180.559 196.398 180.265 196.282 179.782C196.165 179.299 196.461 178.81 196.95 178.721C197.659 178.593 198.406 178.507 199.194 178.465ZM188.348 187.765C187.864 187.65 187.563 187.163 187.709 186.688C188.169 185.186 188.877 183.8 189.87 182.608C190.189 182.226 190.762 182.226 191.115 182.576C191.468 182.926 191.466 183.493 191.155 183.88C190.405 184.813 189.846 185.9 189.463 187.107C189.313 187.581 188.831 187.881 188.348 187.765ZM207.973 183.003C208.353 182.681 208.923 182.727 209.217 183.128C210.209 184.486 210.954 186.062 211.455 187.758C211.595 188.234 211.296 188.721 210.813 188.838C210.33 188.955 209.846 188.657 209.703 188.181C209.267 186.736 208.641 185.42 207.839 184.295C207.55 183.89 207.594 183.324 207.973 183.003ZM189.29 199.503C188.818 199.659 188.308 199.404 188.165 198.927C187.743 197.514 187.428 196.084 187.236 194.671C187.17 194.178 187.533 193.737 188.027 193.689C188.522 193.64 188.961 194.002 189.029 194.494C189.205 195.771 189.492 197.07 189.875 198.362C190.016 198.839 189.762 199.347 189.29 199.503ZM211.236 195.343C211.73 195.391 212.095 195.831 212.027 196.324C211.801 197.967 211.387 199.608 210.781 201.186C210.603 201.65 210.072 201.859 209.616 201.662C209.159 201.464 208.952 200.935 209.128 200.47C209.659 199.069 210.027 197.612 210.234 196.151C210.303 195.658 210.741 195.296 211.236 195.343ZM195.127 209.807C194.757 210.139 194.187 210.109 193.868 209.727C192.959 208.635 192.117 207.437 191.356 206.168C191.101 205.741 191.256 205.192 191.69 204.949C192.124 204.706 192.671 204.862 192.927 205.287C193.624 206.447 194.39 207.535 195.209 208.524C195.526 208.907 195.497 209.475 195.127 209.807ZM206.039 207.106C206.399 207.449 206.413 208.021 206.052 208.362C205.441 208.941 204.784 209.481 204.08 209.977C203.51 210.377 202.897 210.772 202.246 211.161C201.819 211.415 201.27 211.26 201.026 210.827C200.782 210.394 200.937 209.846 201.364 209.591C201.965 209.231 202.527 208.869 203.044 208.505C203.65 208.078 204.219 207.614 204.749 207.117C205.112 206.777 205.68 206.762 206.039 207.106ZM218.324 212.892C218.488 213.361 218.242 213.875 217.77 214.031C216.187 214.553 214.634 214.97 213.13 215.283C212.644 215.385 212.175 215.06 212.085 214.571C211.995 214.082 212.319 213.614 212.806 213.512C214.216 213.217 215.678 212.824 217.173 212.333C217.645 212.177 218.159 212.423 218.324 212.892ZM195.611 213.41C195.8 213.87 195.58 214.396 195.117 214.579C193.83 215.085 192.484 215.569 191.096 216.024C190.623 216.178 190.118 215.915 189.968 215.441C189.819 214.966 190.082 214.462 190.555 214.307C191.897 213.867 193.195 213.401 194.435 212.913C194.897 212.731 195.423 212.951 195.611 213.41ZM202.276 215.516C201.532 215.341 200.802 215.084 200.091 214.756C199.64 214.548 199.48 213.998 199.718 213.562C199.955 213.125 200.5 212.969 200.954 213.171C201.53 213.429 202.109 213.628 202.688 213.764C203.345 213.919 204.053 214.032 204.807 214.103C205.302 214.15 205.686 214.569 205.662 215.065C205.638 215.562 205.217 215.947 204.722 215.903C203.864 215.826 203.046 215.697 202.276 215.516ZM184.186 217.036C184.301 217.519 184.003 218.005 183.518 218.116C182.136 218.43 180.739 218.713 179.339 218.959C178.85 219.045 178.387 218.712 178.306 218.222C178.225 217.731 178.557 217.269 179.047 217.183C180.404 216.944 181.759 216.67 183.101 216.365C183.585 216.254 184.071 216.552 184.186 217.036ZM172.353 218.965C172.394 219.46 172.026 219.895 171.53 219.93C170.072 220.031 168.636 220.081 167.238 220.074C166.741 220.072 166.347 219.66 166.358 219.163C166.37 218.666 166.781 218.273 167.278 218.275C168.611 218.28 169.983 218.232 171.381 218.136C171.877 218.102 172.312 218.469 172.353 218.965Z" fill="#B692EA"/>
<path fill-rule="evenodd" clip-rule="evenodd" d="M250.59 138.174C251.068 138.037 251.567 138.312 251.7 138.791C252.13 140.335 252.514 141.856 252.853 143.353C252.963 143.838 252.653 144.317 252.168 144.422C251.682 144.527 251.203 144.218 251.094 143.733C250.763 142.276 250.39 140.795 249.971 139.289C249.837 138.81 250.112 138.312 250.59 138.174ZM253.29 150.755C253.782 150.688 254.237 151.032 254.299 151.525C254.501 153.131 254.65 154.706 254.747 156.25C254.778 156.746 254.396 157.169 253.899 157.194C253.403 157.219 252.981 156.837 252.949 156.341C252.855 154.848 252.711 153.325 252.516 151.77C252.454 151.277 252.798 150.823 253.29 150.755ZM253.922 163.65C254.419 163.672 254.804 164.093 254.774 164.589C254.68 166.198 254.526 167.768 254.319 169.299C254.252 169.792 253.793 170.13 253.302 170.056C252.81 169.982 252.472 169.523 252.539 169.031C252.737 167.561 252.884 166.054 252.976 164.508C253.006 164.012 253.426 163.627 253.922 163.65ZM251.983 176.381C252.462 176.51 252.748 177.004 252.611 177.482C252.167 179.035 251.663 180.539 251.107 181.995C250.93 182.459 250.405 182.682 249.944 182.497C249.482 182.312 249.259 181.789 249.436 181.324C249.967 179.934 250.447 178.497 250.873 177.015C251.01 176.537 251.503 176.252 251.983 176.381ZM247.185 188.319C247.621 188.559 247.78 189.107 247.533 189.538C246.73 190.938 245.876 192.281 244.978 193.567C244.694 193.975 244.131 194.065 243.728 193.773C243.325 193.482 243.236 192.92 243.52 192.512C244.376 191.285 245.19 190.004 245.956 188.669C246.203 188.238 246.75 188.079 247.185 188.319ZM239.636 198.763C240 199.1 240.023 199.67 239.679 200.029C238.565 201.192 237.416 202.29 236.241 203.323C235.867 203.651 235.299 203.605 234.977 203.226C234.655 202.848 234.701 202.28 235.074 201.952C236.197 200.964 237.295 199.916 238.358 198.806C238.702 198.447 239.271 198.425 239.636 198.763ZM229.825 207.111C230.1 207.525 229.988 208.084 229.57 208.353C228.207 209.228 226.831 210.028 225.455 210.751C225.016 210.982 224.474 210.803 224.25 210.36C224.026 209.916 224.205 209.376 224.645 209.144C225.957 208.453 227.27 207.69 228.573 206.854C228.991 206.586 229.549 206.697 229.825 207.111Z" fill="#7E50BF"/>
<path fill-rule="evenodd" clip-rule="evenodd" d="M260.145 114.151C260.145 125.865 250.649 135.361 238.935 135.361C227.222 135.361 217.726 125.865 217.726 114.151C217.726 102.437 227.222 92.9414 238.935 92.9414C250.649 92.9414 260.145 102.437 260.145 114.151ZM261.943 114.151C261.943 126.858 251.642 137.158 238.935 137.158C226.229 137.158 215.928 126.858 215.928 114.151C215.928 101.445 226.229 91.144 238.935 91.144C251.642 91.144 261.943 101.445 261.943 114.151ZM238.936 132.845C249.26 132.845 257.629 124.475 257.629 114.151C257.629 103.827 249.26 95.4578 238.936 95.4578C228.611 95.4578 220.242 103.827 220.242 114.151C220.242 124.475 228.611 132.845 238.936 132.845Z" fill="#B187EC"/>
<path fill-rule="evenodd" clip-rule="evenodd" d="M240.634 105.875C240.831 105.553 240.944 105.174 240.944 104.769C240.944 103.597 239.995 102.648 238.823 102.648C237.652 102.648 236.702 103.597 236.702 104.769C236.702 105.184 236.821 105.571 237.027 105.898C235.721 106.294 234.245 107.095 233.273 108.443C231.612 110.746 231.706 113.049 231.748 114.082C231.753 114.213 231.758 114.324 231.758 114.411C231.758 114.491 231.762 114.596 231.766 114.723L231.766 114.723C231.806 115.848 231.906 118.697 230.065 120.639H238.887V120.639H247.536C245.732 118.696 245.83 115.847 245.868 114.723C245.873 114.596 245.876 114.49 245.876 114.411C245.876 114.323 245.881 114.213 245.886 114.082C245.927 113.049 246.019 110.746 244.391 108.443C243.419 107.068 241.933 106.262 240.634 105.875ZM239.409 105.62C239.679 105.433 239.856 105.122 239.856 104.769C239.856 104.198 239.394 103.736 238.823 103.736C238.253 103.736 237.79 104.198 237.79 104.769C237.79 105.13 237.975 105.447 238.255 105.632C238.484 105.603 238.697 105.589 238.887 105.589V105.589C239.046 105.589 239.221 105.599 239.409 105.62ZM238.823 125.655C240.175 125.655 241.271 124.486 241.271 123.044C241.271 123.044 240.175 123.044 238.823 123.044C237.471 123.044 236.375 123.044 236.375 123.044C236.375 124.486 237.471 125.655 238.823 125.655ZM228.87 121.82C228.87 121.414 229.199 121.086 229.604 121.086H248.042C248.448 121.086 248.777 121.414 248.777 121.82C248.777 122.226 248.448 122.554 248.042 122.554H229.604C229.199 122.554 228.87 122.226 228.87 121.82Z" fill="white"/>
</svg>
