<svg width="13" height="16" viewBox="0 0 13 16" fill="none" xmlns="http://www.w3.org/2000/svg">
<path d="M5.53526 10.6108L6.5 11.6363L9.92105 7.99987L6.5 4.36345L5.53526 5.38892L7.30053 7.27259H0V8.72716H7.30053L5.53526 10.6108ZM11.6316 0H2.73684C2.37391 0 2.02585 0.153249 1.76922 0.426033C1.51259 0.698818 1.36842 1.06879 1.36842 1.45457V4.36371H2.73684V1.45457H11.6316V14.5454H2.73684V11.6363H1.36842V14.5454C1.36842 14.9312 1.51259 15.3012 1.76922 15.574C2.02585 15.8468 2.37391 16 2.73684 16H11.6316C12.3842 16 13 15.3454 13 14.5454V1.45457C13 0.654556 12.3842 0 11.6316 0Z" fill="#555555"/>
</svg>
