<svg width="23" height="20" viewBox="0 0 23 20" fill="none" xmlns="http://www.w3.org/2000/svg">
<path d="M11.2603 20C11.1165 20 10.9729 19.9497 10.8563 19.8497C10.5297 19.5693 2.83896 12.9571 1.30765 10.5827C0.326947 9.06176 -0.073058 7.66722 0.0108495 6.06101C0.0954479 4.44619 0.764447 2.9299 1.89475 1.79144C3.04157 0.63617 4.5389 0 6.11085 0C8.5404 0 10.4051 1.84625 11.2615 2.88426C12.1435 1.85261 14.0529 0 16.3892 0C17.9613 0 19.4587 0.63617 20.6056 1.79138C21.7359 2.9299 22.405 4.44619 22.4895 6.06088C22.5973 8.11456 21.8535 9.55583 21.1934 10.582C20.7944 11.202 17.7295 14.2085 17.1191 14.8049C16.8683 15.0498 16.4707 15.0408 16.2311 14.7846C15.9913 14.5284 16.0003 14.1221 16.2509 13.8771C17.9971 12.171 19.9306 10.2082 20.1438 9.87687C20.9784 8.57911 21.3048 7.45837 21.2352 6.12949C21.0952 3.45741 18.9213 1.28357 16.3891 1.28357C13.865 1.28357 11.785 4.26193 11.7643 4.29203C11.6449 4.46532 11.4497 4.5675 11.2421 4.56441C11.0347 4.56153 10.8421 4.45422 10.7274 4.27759C10.7083 4.24845 8.73987 1.28357 6.11085 1.28357C3.57893 1.28357 1.40512 3.45741 1.26513 6.12942C1.19655 7.4438 1.53318 8.59939 2.35649 9.87635C3.60374 11.8103 9.68263 17.147 11.2797 18.5342L16.6107 13.5246C16.8859 13.3089 17.2802 13.362 17.4913 13.6434C17.7023 13.9247 17.6503 14.3275 17.375 14.5433L11.6425 19.8675C11.5295 19.956 11.3948 20 11.2603 20Z" fill="#4A4A4A"/>
</svg>
