<svg width="125" height="36" viewBox="0 0 125 36" fill="none" xmlns="http://www.w3.org/2000/svg">
<path fill-rule="evenodd" clip-rule="evenodd" d="M18 34.5938H0V32.1562H18V34.5938ZM18 18.2344H0V15.7969H18V18.2344ZM18 2.92969H0V0.46875H18V2.92969ZM92.6306 27.6562C93.7244 25.2812 94.2712 22.5234 94.2712 19.3828V15.3047C94.2244 12.2578 93.6541 9.57812 92.5603 7.26562C91.4666 4.95312 89.9119 3.16406 87.8962 1.89844C85.8962 0.632812 83.5837 0 80.9587 0C78.3337 0 76.0134 0.648438 73.9978 1.94531C71.9822 3.22656 70.4197 5.07031 69.3103 7.47656C68.2166 9.86719 67.6697 12.6172 67.6697 15.7266V19.2422C67.6697 24.0859 68.8962 27.9375 71.3494 30.7969C73.8025 33.6406 77.0212 35.0625 81.0056 35.0625C83.6462 35.0625 85.9744 34.4219 87.99 33.1406C90.0056 31.8594 91.5525 30.0312 92.6306 27.6562ZM88.5994 6.02344C90.4587 8.35156 91.3884 11.5703 91.3884 15.6797V19.2891C91.3884 23.4609 90.4744 26.7188 88.6462 29.0625C86.8181 31.3906 84.2712 32.5547 81.0056 32.5547C77.7869 32.5547 75.24 31.375 73.365 29.0156C71.49 26.6406 70.5525 23.4297 70.5525 19.3828V15.8203C70.5525 11.6328 71.49 8.375 73.365 6.04688C75.2556 3.70312 77.7869 2.53125 80.9587 2.53125C84.1931 2.53125 86.74 3.69531 88.5994 6.02344ZM42.1659 32.1562H25.3144V0.46875H22.4081V34.5938H42.1659V32.1562ZM54.8647 23.4054L56.2455 27.3754L66.2616 0.46875H63.0975L54.8647 23.4054ZM49.3434 23.0721L41.2303 0.46875H38.0897L50.7928 34.5938H53.3506L49.3434 23.0721ZM124.25 30.5391C123.25 31.9609 121.679 33.0703 119.539 33.8672C117.414 34.6641 115.031 35.0625 112.39 35.0625C109.718 35.0625 107.343 34.4219 105.265 33.1406C103.187 31.8594 101.578 30.0469 100.437 27.7031C99.2966 25.3594 98.7184 22.6719 98.7028 19.6406V15.3281C98.7028 10.5938 99.8981 6.85938 102.289 4.125C104.679 1.375 107.89 0 111.922 0C115.437 0 118.265 0.898438 120.406 2.69531C122.547 4.47656 123.82 6.9375 124.226 10.0781H121.343C120.922 7.57812 119.898 5.6875 118.273 4.40625C116.664 3.10938 114.554 2.46094 111.945 2.46094C108.757 2.46094 106.234 3.59375 104.375 5.85938C102.515 8.125 101.586 11.3203 101.586 15.4453V19.4766C101.586 22.0703 102.023 24.3672 102.898 26.3672C103.789 28.3516 105.054 29.8906 106.695 30.9844C108.351 32.0781 110.25 32.625 112.39 32.625C114.875 32.625 117.007 32.2344 118.789 31.4531C119.945 30.9375 120.804 30.3359 121.367 29.6484V20.8359H112.203V18.3984H124.25V30.5391Z" fill="#7E50BF"/>
</svg>
