<svg width="18" height="16" viewBox="0 0 18 16" fill="none" xmlns="http://www.w3.org/2000/svg">
<path d="M9.00824 16C8.89318 16 8.77832 15.9597 8.68507 15.8798C8.42375 15.6555 2.27117 10.3657 1.04612 8.46614C0.261558 7.24941 -0.0584464 6.13377 0.00867962 4.8488C0.0763583 3.55695 0.611558 2.34392 1.5158 1.43315C2.43325 0.508936 3.63112 0 4.88868 0C6.83232 0 8.32407 1.477 9.00919 2.30741C9.71482 1.48209 11.2423 0 13.1114 0C14.369 0 15.5669 0.508936 16.4844 1.4331C17.3887 2.34392 17.924 3.55695 17.9916 4.8487C18.0778 6.49165 17.4828 7.64466 16.9547 8.46563C16.6355 8.96157 14.1836 11.3668 13.6953 11.8439C13.4947 12.0398 13.1766 12.0326 12.9848 11.8277C12.7931 11.6227 12.8002 11.2977 13.0007 11.1017C14.3977 9.73679 15.9445 8.16654 16.115 7.90149C16.7827 6.86329 17.0439 5.9667 16.9881 4.90359C16.8761 2.76593 15.1371 1.02686 13.1113 1.02686C11.092 1.02686 9.42798 3.40954 9.41145 3.43362C9.31593 3.57225 9.15972 3.654 8.99372 3.65153C8.82776 3.64922 8.67371 3.56337 8.58192 3.42207C8.56664 3.39876 6.99189 1.02686 4.88868 1.02686C2.86314 1.02686 1.1241 2.76593 1.0121 4.90354C0.957236 5.95504 1.22654 6.87951 1.88519 7.90108C2.88299 9.44822 7.74611 13.7176 9.02376 14.8273L13.2886 10.8196C13.5087 10.6471 13.8242 10.6896 13.993 10.9147C14.1618 11.1397 14.1202 11.462 13.9 11.6346L9.31397 15.894C9.22358 15.9648 9.11581 16 9.00824 16Z" fill="#7E50BF"/>
</svg>
