<svg width="256" height="92" viewBox="0 0 256 92" fill="none" xmlns="http://www.w3.org/2000/svg">
<path fill-rule="evenodd" clip-rule="evenodd" d="M52.313 0H241.53C249.522 0 256 6.47824 256 14.4696V38.9565C256 67.8482 232.579 91.2696 203.687 91.2696H14.4696C6.47825 91.2696 0 84.7913 0 76.8V52.313C0 23.4213 23.4213 0 52.313 0ZM52.313 3.33913C25.2655 3.33913 3.33913 25.2655 3.33913 52.313V76.8C3.33913 82.9472 8.3224 87.9304 14.4696 87.9304H203.687C230.734 87.9304 252.661 66.0041 252.661 38.9565V14.4696C252.661 8.3224 247.678 3.33913 241.53 3.33913H52.313Z" fill="#7E50BF"/>
<path d="M57.6481 65.6696H26.8916V64.5348C28.1438 64.5348 29.1351 64.4565 29.8655 64.3C30.622 64.1435 31.1959 63.8565 31.5873 63.4391C31.9786 62.9956 32.2394 62.3956 32.3699 61.6391C32.5003 60.8565 32.5655 59.8522 32.5655 58.6261V32.5652C32.5655 31.313 32.5133 30.3087 32.409 29.5522C32.3046 28.7956 32.0568 28.2087 31.6655 27.7913C31.2742 27.3739 30.7003 27.1 29.9438 26.9696C29.1873 26.813 28.1699 26.7348 26.8916 26.7348V25.6783H57.6481L58.1177 34.4043H57.022C56.6829 33.1261 56.3568 32.0696 56.0438 31.2348C55.7568 30.3739 55.3525 29.6956 54.8307 29.2C54.3351 28.7043 53.6438 28.3522 52.7568 28.1435C51.8959 27.9348 50.722 27.8304 49.2351 27.8304H38.2003V43.6391H47.0046C48.2307 43.6391 49.209 43.5609 49.9394 43.4043C50.6959 43.2217 51.2959 42.9217 51.7394 42.5043C52.209 42.0609 52.5481 41.4739 52.7568 40.7435C52.9916 39.9869 53.1873 39.0217 53.3438 37.8478H54.4394V51.8174H53.3438C53.1873 50.6435 52.9916 49.6783 52.7568 48.9217C52.5481 48.1652 52.222 47.5652 51.7786 47.1217C51.3351 46.6522 50.7351 46.3261 49.9786 46.1435C49.2481 45.9609 48.2568 45.8696 47.0046 45.8696H38.2003V59.0174C38.2003 59.8 38.2133 60.4783 38.2394 61.0522C38.2916 61.6 38.422 62.0565 38.6307 62.4217C38.8655 62.7869 39.2046 63.0609 39.6481 63.2435C40.0916 63.4261 40.7307 63.5174 41.5655 63.5174H48.2959C50.0438 63.5174 51.4786 63.3739 52.6003 63.0869C53.722 62.8 54.6873 62.3435 55.4959 61.7174C56.3307 61.0913 57.0742 60.2826 57.7264 59.2913C58.3786 58.2739 59.109 57.0609 59.9177 55.6522H61.1699L57.6481 65.6696Z" fill="#7E50BF"/>
<path d="M94.6655 65.6696H63.5959V64.5348C64.5351 64.5348 65.3699 64.4826 66.1003 64.3783C66.8307 64.2478 67.4307 64.013 67.9003 63.6739C68.3959 63.3087 68.7742 62.8 69.0351 62.1478C69.2959 61.4956 69.4264 60.6348 69.4264 59.5652V31.7826C69.4264 30.7391 69.2959 29.8913 69.0351 29.2391C68.7742 28.5869 68.3959 28.0913 67.9003 27.7522C67.4307 27.3869 66.8307 27.1391 66.1003 27.0087C65.3699 26.8783 64.5351 26.813 63.5959 26.813V25.6783H80.9699V26.813C80.0046 26.813 79.1568 26.8783 78.4264 27.0087C77.6959 27.1391 77.0829 27.3869 76.5872 27.7522C76.0916 28.0913 75.7133 28.5869 75.4525 29.2391C75.1916 29.8913 75.0612 30.7391 75.0612 31.7826V58.1174C75.0612 59.1087 75.1394 59.9304 75.2959 60.5826C75.4525 61.2087 75.7133 61.7174 76.0786 62.1087C76.4699 62.4739 76.9916 62.7348 77.6438 62.8913C78.2959 63.0217 79.1177 63.0869 80.109 63.0869H84.1003C86.0307 63.0869 87.6481 62.9826 88.9525 62.7739C90.2568 62.5391 91.3786 62.1217 92.3177 61.5217C93.2829 60.8956 94.1307 60.0348 94.8612 58.9391C95.5916 57.8174 96.3351 56.3696 97.0916 54.5956L98.109 54.7522L94.6655 65.6696Z" fill="#7E50BF"/>
<path d="M142.209 26.7348C141.374 26.8652 140.644 27.1 140.018 27.4391C139.392 27.7783 138.844 28.1956 138.374 28.6913C137.905 29.1869 137.5 29.7609 137.161 30.413C136.822 31.0391 136.496 31.7304 136.183 32.4869L122.252 66.6478H121.196L106.209 32.0956C105.844 31.2609 105.492 30.5304 105.152 29.9043C104.813 29.2783 104.409 28.7435 103.939 28.3C103.496 27.8565 102.948 27.5174 102.296 27.2826C101.644 27.0217 100.835 26.8391 99.8699 26.7348V25.6783H116.148V26.7348C115.731 26.7609 115.261 26.813 114.739 26.8913C114.244 26.9696 113.761 27.113 113.292 27.3217C112.848 27.5043 112.47 27.7783 112.157 28.1435C111.87 28.4826 111.726 28.9391 111.726 29.513C111.726 30.2435 111.857 30.9609 112.118 31.6652C112.379 32.3696 112.705 33.1783 113.096 34.0913L123.27 57.4913L132.739 34.2478C132.844 33.9869 132.974 33.6609 133.131 33.2696C133.313 32.8522 133.47 32.4348 133.6 32.0174C133.731 31.5739 133.848 31.1565 133.952 30.7652C134.057 30.3478 134.109 29.9826 134.109 29.6696C134.109 29.1478 133.952 28.7174 133.639 28.3783C133.352 28.0391 132.987 27.7652 132.544 27.5565C132.126 27.3217 131.67 27.1522 131.174 27.0478C130.679 26.9174 130.235 26.813 129.844 26.7348V25.6783H142.209V26.7348Z" fill="#7E50BF"/>
<path d="M184.196 45.4783C184.196 48.3217 183.726 51.0217 182.787 53.5783C181.848 56.1348 180.518 58.3913 178.796 60.3478C177.1 62.2783 175.039 63.8174 172.613 64.9652C170.213 66.0869 167.526 66.6478 164.552 66.6478C161.579 66.6478 158.879 66.0869 156.452 64.9652C154.052 63.8435 151.992 62.3304 150.27 60.4261C148.574 58.4956 147.27 56.2522 146.357 53.6956C145.444 51.1391 144.987 48.4261 144.987 45.5565C144.987 42.6609 145.47 39.9609 146.435 37.4565C147.426 34.9261 148.809 32.7348 150.583 30.8826C152.357 29.0043 154.47 27.5304 156.922 26.4609C159.374 25.3652 162.074 24.8174 165.022 24.8174C167.918 24.8174 170.539 25.3783 172.887 26.5C175.235 27.5956 177.244 29.0956 178.913 31C180.609 32.8783 181.913 35.0696 182.826 37.5739C183.739 40.0783 184.196 42.713 184.196 45.4783ZM177.466 45.8696C177.466 44.4087 177.387 42.9217 177.231 41.4087C177.1 39.8956 176.852 38.4348 176.487 37.0261C176.122 35.6174 175.626 34.3 175 33.0739C174.374 31.8478 173.579 30.7783 172.613 29.8652C171.648 28.9522 170.487 28.2348 169.131 27.713C167.774 27.1652 166.196 26.8913 164.396 26.8913C162.726 26.8913 161.252 27.1652 159.974 27.713C158.722 28.2348 157.626 28.9522 156.687 29.8652C155.748 30.7783 154.966 31.8478 154.339 33.0739C153.713 34.3 153.205 35.6043 152.813 36.9869C152.448 38.3435 152.187 39.7522 152.031 41.213C151.874 42.6478 151.796 44.0435 151.796 45.4C151.796 46.7304 151.874 48.1261 152.031 49.5869C152.187 51.0478 152.461 52.4826 152.852 53.8913C153.244 55.3 153.752 56.6435 154.379 57.9217C155.005 59.2 155.787 60.3217 156.726 61.2869C157.666 62.2522 158.774 63.0217 160.052 63.5956C161.331 64.1696 162.805 64.4565 164.474 64.4565C166.222 64.4565 167.748 64.1956 169.052 63.6739C170.383 63.1522 171.531 62.4478 172.496 61.5609C173.461 60.6478 174.257 59.5913 174.883 58.3913C175.535 57.1652 176.044 55.8739 176.409 54.5174C176.8 53.1348 177.074 51.713 177.231 50.2522C177.387 48.7652 177.466 47.3043 177.466 45.8696Z" fill="#7E50BF"/>
<path d="M229.313 44.9304C228.218 44.9304 227.37 45.0609 226.77 45.3217C226.17 45.5826 225.726 45.9609 225.439 46.4565C225.152 46.9522 224.97 47.5652 224.892 48.2956C224.839 49.0261 224.813 49.8478 224.813 50.7609V63.0087C222.674 64.2609 220.405 65.1739 218.005 65.7478C215.631 66.3478 213.192 66.6478 210.687 66.6478C207.635 66.6478 204.766 66.1913 202.079 65.2783C199.392 64.3652 197.044 63.0478 195.035 61.3261C193.052 59.5783 191.474 57.4391 190.3 54.9087C189.152 52.3783 188.579 49.4956 188.579 46.2609C188.579 43.2869 189.113 40.4956 190.183 37.8869C191.279 35.2783 192.779 33.0087 194.683 31.0783C196.587 29.1217 198.831 27.5956 201.413 26.5C204.022 25.3783 206.826 24.8174 209.826 24.8174C211.339 24.8174 212.735 24.9478 214.013 25.2087C215.318 25.4696 216.452 25.7565 217.418 26.0696C218.409 26.3565 219.205 26.6304 219.805 26.8913C220.431 27.1522 220.848 27.2826 221.057 27.2826C221.318 27.2826 221.539 27.1913 221.722 27.0087C221.931 26.8 222.087 26.5652 222.192 26.3043C222.322 26.0435 222.413 25.7826 222.465 25.5217C222.518 25.2348 222.557 25 222.583 24.8174H223.6L224.657 37.3783H223.6C223.079 35.7869 222.426 34.3391 221.644 33.0348C220.861 31.7304 219.935 30.6217 218.866 29.7087C217.796 28.7696 216.557 28.0522 215.148 27.5565C213.739 27.0609 212.148 26.813 210.374 26.813C207.766 26.813 205.522 27.3217 203.644 28.3391C201.766 29.3565 200.213 30.713 198.987 32.4087C197.761 34.1043 196.848 36.0478 196.248 38.2391C195.674 40.4304 195.387 42.6869 195.387 45.0087C195.387 47.3304 195.687 49.6522 196.287 51.9739C196.913 54.2956 197.852 56.3956 199.105 58.2739C200.383 60.1261 201.987 61.6391 203.918 62.813C205.848 63.9609 208.144 64.5348 210.805 64.5348C212.239 64.5348 213.648 64.3652 215.031 64.0261C216.439 63.6609 217.77 63.113 219.022 62.3826V50.7609C219.022 49.6652 218.97 48.7522 218.866 48.0217C218.761 47.2913 218.526 46.7043 218.161 46.2609C217.796 45.8174 217.274 45.5043 216.596 45.3217C215.918 45.113 214.992 44.9826 213.818 44.9304V43.8739H229.313V44.9304Z" fill="#7E50BF"/>
</svg>
