<svg width="15" height="12" viewBox="0 0 15 12" fill="none" xmlns="http://www.w3.org/2000/svg">
<path d="M13.587 0H1.40557C0.63049 0 0 0.672853 0 1.50001V10.5C0 11.3271 0.63049 12 1.40557 12H13.587C14.3621 12 14.9926 11.3271 14.9926 10.5V1.50001C14.9926 0.672853 14.3621 0 13.587 0ZM13.587 0.999994C13.6507 0.999994 13.7113 1.01409 13.7666 1.0387L7.49631 6.83838L1.22596 1.0387C1.28132 1.01412 1.34188 0.999994 1.40554 0.999994H13.587ZM13.587 11H1.40557C1.14706 11 0.937034 10.7759 0.937034 10.5V2.09521L7.18929 7.87792C7.27761 7.95944 7.38696 7.99999 7.49631 7.99999C7.60566 7.99999 7.715 7.95948 7.80332 7.87792L14.0556 2.09521V10.5C14.0555 10.7759 13.8456 11 13.587 11Z" fill="#F7F7F7"/>
</svg>
