<svg width="33" height="34" viewBox="0 0 33 34" fill="none" xmlns="http://www.w3.org/2000/svg">
<path d="M31.2688 26.3579L24.9593 21.8674C24.1586 21.3021 23.0853 21.4881 22.4933 22.2948L20.6554 24.8167C20.4192 25.149 19.9899 25.2454 19.6482 25.0429L19.2986 24.8372C18.1396 24.163 16.6976 23.3237 13.7922 20.222C10.8868 17.1202 10.0987 15.5802 9.46701 14.3456L9.27532 13.9725C9.08289 13.6079 9.17152 13.1478 9.48308 12.8937L11.8446 10.9329C12.6002 10.3011 12.7747 9.15597 12.2456 8.30121L8.0379 1.56771C7.49568 0.697297 6.40783 0.436003 5.56841 0.974508L2.93 2.6659C2.101 3.18602 1.49279 4.02838 1.23291 5.01645C0.282823 8.71082 0.997563 15.0867 9.79848 24.4801C16.7994 31.9509 22.0113 33.96 25.5936 33.96C26.418 33.9638 27.2392 33.8493 28.0351 33.6197C28.9612 33.3426 29.7506 32.6935 30.2377 31.8085L31.8242 28.9945C32.3295 28.0985 32.0848 26.9368 31.2688 26.3579Z" fill="white"/>
<path d="M18.5776 6.24121C23.4525 6.247 27.4031 10.4631 27.4086 15.6656C27.4086 15.9718 27.6411 16.22 27.9281 16.22C28.215 16.22 28.4475 15.9718 28.4475 15.6656C28.4415 9.85097 24.0261 5.13887 18.5776 5.13251C18.2907 5.13251 18.0581 5.38068 18.0581 5.68686C18.0581 5.99304 18.2907 6.24121 18.5776 6.24121Z" fill="white"/>
<path d="M18.5776 9.56769C21.7319 9.57165 24.2881 12.2996 24.2918 15.6658C24.2918 15.972 24.5244 16.2202 24.8112 16.2202C25.0981 16.2202 25.3307 15.972 25.3307 15.6658C25.3264 11.6875 22.3054 8.46353 18.5776 8.45898C18.2907 8.45898 18.0581 8.70715 18.0581 9.01334C18.0581 9.31952 18.2907 9.56769 18.5776 9.56769Z" fill="white"/>
<path d="M18.5776 12.8941C20.0113 12.8959 21.1732 14.1358 21.1749 15.666C21.1749 15.9722 21.4076 16.2203 21.6944 16.2203C21.9812 16.2203 22.2139 15.9722 22.2139 15.666C22.2115 13.5238 20.5849 11.7878 18.5776 11.7854C18.2907 11.7854 18.0581 12.0336 18.0581 12.3397C18.0581 12.6459 18.2907 12.8941 18.5776 12.8941Z" fill="white"/>
</svg>
