<svg width="996" height="82" viewBox="0 0 996 82" fill="none" xmlns="http://www.w3.org/2000/svg">
<path d="M28.1191 45.1416C19.2747 42.5993 12.8294 39.484 8.7832 35.7959C4.77279 32.0719 2.76758 27.4886 2.76758 22.0459C2.76758 15.887 5.22038 10.8024 10.126 6.79199C15.0674 2.74577 21.4769 0.722656 29.3545 0.722656C34.7256 0.722656 39.5059 1.76107 43.6953 3.83789C47.9206 5.91471 51.179 8.7793 53.4707 12.4316C55.7982 16.084 56.9619 20.0765 56.9619 24.4092H46.5957C46.5957 19.6826 45.0918 15.9766 42.084 13.291C39.0762 10.5697 34.833 9.20898 29.3545 9.20898C24.2699 9.20898 20.2952 10.3369 17.4307 12.5928C14.6019 14.8128 13.1875 17.9102 13.1875 21.8848C13.1875 25.0716 14.5303 27.7751 17.2158 29.9951C19.9372 32.1794 24.5384 34.1846 31.0195 36.0107C37.5365 37.8369 42.6211 39.86 46.2734 42.0801C49.9616 44.2643 52.6829 46.8245 54.4375 49.7607C56.2279 52.6969 57.123 56.1523 57.123 60.127C57.123 66.4648 54.6523 71.5495 49.7109 75.3809C44.7695 79.1764 38.1631 81.0742 29.8916 81.0742C24.5205 81.0742 19.5075 80.0537 14.8525 78.0127C10.1976 75.9359 6.59896 73.1071 4.05664 69.5264C1.55013 65.9456 0.296875 61.8815 0.296875 57.334H10.6631C10.6631 62.0605 12.3997 65.8024 15.873 68.5596C19.3822 71.2809 24.055 72.6416 29.8916 72.6416C35.3343 72.6416 39.5059 71.5316 42.4062 69.3115C45.3066 67.0915 46.7568 64.0658 46.7568 60.2344C46.7568 56.403 45.4141 53.4489 42.7285 51.3721C40.043 49.2594 35.1732 47.1826 28.1191 45.1416ZM129.523 59.5898H96.7596L89.4012 80H78.7664L108.63 1.79688H117.653L147.57 80H136.989L129.523 59.5898ZM99.8748 51.1035H126.462L113.141 14.5264L99.8748 51.1035ZM184.414 71.5674H221.474V80H174.047V1.79688H184.414V71.5674ZM293.391 43.8525H259.499V71.5674H298.87V80H249.187V1.79688H298.332V10.2832H259.499V35.4199H293.391V43.8525ZM350.698 45.1416C341.854 42.5993 335.409 39.484 331.362 35.7959C327.352 32.0719 325.347 27.4886 325.347 22.0459C325.347 15.887 327.8 10.8024 332.705 6.79199C337.647 2.74577 344.056 0.722656 351.934 0.722656C357.305 0.722656 362.085 1.76107 366.275 3.83789C370.5 5.91471 373.758 8.7793 376.05 12.4316C378.377 16.084 379.541 20.0765 379.541 24.4092H369.175C369.175 19.6826 367.671 15.9766 364.663 13.291C361.655 10.5697 357.412 9.20898 351.934 9.20898C346.849 9.20898 342.875 10.3369 340.01 12.5928C337.181 14.8128 335.767 17.9102 335.767 21.8848C335.767 25.0716 337.11 27.7751 339.795 29.9951C342.516 32.1794 347.118 34.1846 353.599 36.0107C360.116 37.8369 365.2 39.86 368.853 42.0801C372.541 44.2643 375.262 46.8245 377.017 49.7607C378.807 52.6969 379.702 56.1523 379.702 60.127C379.702 66.4648 377.232 71.5495 372.29 75.3809C367.349 79.1764 360.742 81.0742 352.471 81.0742C347.1 81.0742 342.087 80.0537 337.432 78.0127C332.777 75.9359 329.178 73.1071 326.636 69.5264C324.129 65.9456 322.876 61.8815 322.876 57.334H333.242C333.242 62.0605 334.979 65.8024 338.452 68.5596C341.961 71.2809 346.634 72.6416 352.471 72.6416C357.914 72.6416 362.085 71.5316 364.986 69.3115C367.886 67.0915 369.336 64.0658 369.336 60.2344C369.336 56.403 367.993 53.4489 365.308 51.3721C362.622 49.2594 357.752 47.1826 350.698 45.1416ZM462.52 71.5674H499.581V80H452.154V1.79688H462.52V71.5674ZM571.498 43.8525H537.606V71.5674H576.976V80H527.294V1.79688H576.439V10.2832H537.606V35.4199H571.498V43.8525ZM648.947 59.5898H616.183L608.825 80H598.19L628.053 1.79688H637.077L666.994 80H656.412L648.947 59.5898ZM619.298 51.1035H645.885L632.565 14.5264L619.298 51.1035ZM693.471 80V1.79688H715.546C722.349 1.79688 728.365 3.30078 733.593 6.30859C738.821 9.31641 742.849 13.5954 745.678 19.1455C748.543 24.6956 749.993 31.0693 750.029 38.2666V43.2617C750.029 50.638 748.596 57.1012 745.732 62.6514C742.903 68.2015 738.839 72.4626 733.539 75.4346C728.276 78.4066 722.135 79.9284 715.116 80H693.471ZM703.783 10.2832V71.5674H714.633C722.582 71.5674 728.759 69.0967 733.163 64.1553C737.603 59.2139 739.823 52.1777 739.823 43.0469V38.4814C739.823 29.6012 737.729 22.7083 733.539 17.8027C729.386 12.8613 723.477 10.3548 715.815 10.2832H703.783ZM825.812 43.8525H791.921V71.5674H831.291V80H781.608V1.79688H830.754V10.2832H791.921V35.4199H825.812V43.8525ZM888.76 48.3643H870.39V80H860.024V1.79688H885.913C894.721 1.79688 901.489 3.80208 906.216 7.8125C910.978 11.8229 913.359 17.6595 913.359 25.3223C913.359 30.1921 912.034 34.4352 909.385 38.0518C906.771 41.6683 903.118 44.3717 898.428 46.1621L916.797 79.3555V80H905.732L888.76 48.3643ZM870.39 39.9316H886.235C891.356 39.9316 895.42 38.6068 898.428 35.957C901.471 33.3073 902.993 29.7624 902.993 25.3223C902.993 20.4883 901.543 16.7822 898.642 14.2041C895.778 11.626 891.624 10.319 886.181 10.2832H870.39V39.9316ZM966.853 45.1416C958.009 42.5993 951.563 39.484 947.517 35.7959C943.507 32.0719 941.502 27.4886 941.502 22.0459C941.502 15.887 943.954 10.8024 948.86 6.79199C953.801 2.74577 960.211 0.722656 968.089 0.722656C973.46 0.722656 978.24 1.76107 982.429 3.83789C986.655 5.91471 989.913 8.7793 992.205 12.4316C994.532 16.084 995.696 20.0765 995.696 24.4092H985.33C985.33 19.6826 983.826 15.9766 980.818 13.291C977.81 10.5697 973.567 9.20898 968.089 9.20898C963.004 9.20898 959.029 10.3369 956.165 12.5928C953.336 14.8128 951.922 17.9102 951.922 21.8848C951.922 25.0716 953.264 27.7751 955.95 29.9951C958.671 32.1794 963.272 34.1846 969.754 36.0107C976.27 37.8369 981.355 39.86 985.007 42.0801C988.696 44.2643 991.417 46.8245 993.172 49.7607C994.962 52.6969 995.857 56.1523 995.857 60.127C995.857 66.4648 993.386 71.5495 988.445 75.3809C983.504 79.1764 976.897 81.0742 968.626 81.0742C963.255 81.0742 958.241 80.0537 953.587 78.0127C948.932 75.9359 945.333 73.1071 942.791 69.5264C940.284 65.9456 939.031 61.8815 939.031 57.334H949.397C949.397 62.0605 951.134 65.8024 954.607 68.5596C958.116 71.2809 962.789 72.6416 968.626 72.6416C974.068 72.6416 978.24 71.5316 981.14 69.3115C984.041 67.0915 985.491 64.0658 985.491 60.2344C985.491 56.403 984.148 53.4489 981.463 51.3721C978.777 49.2594 973.907 47.1826 966.853 45.1416Z" fill="#F0F0F0"/>
</svg>
