<svg width="20" height="20" viewBox="0 0 20 20" fill="none" xmlns="http://www.w3.org/2000/svg">
<path fill-rule="evenodd" clip-rule="evenodd" d="M8.26341 1.73966C6.5332 1.73966 4.87386 2.42699 3.65042 3.65042C2.42699 4.87386 1.73966 6.5332 1.73966 8.26341C1.73966 9.99361 2.42699 11.653 3.65042 12.8764C4.87386 14.0998 6.5332 14.7872 8.26341 14.7872C9.99361 14.7872 11.653 14.0998 12.8764 12.8764C14.0998 11.653 14.7872 9.99361 14.7872 8.26341C14.7872 6.5332 14.0998 4.87386 12.8764 3.65042C11.653 2.42699 9.99361 1.73966 8.26341 1.73966ZM2.4203 2.4203C3.96999 0.870607 6.07182 0 8.26341 0C10.455 0 12.5568 0.870607 14.1065 2.4203C15.6562 3.96999 16.5268 6.07182 16.5268 8.26341C16.5268 10.1415 15.8875 11.9537 14.7293 13.409C14.7305 13.4101 14.7317 13.4113 14.7328 13.4125L19.6249 18.3046C20.0658 18.7454 20.1278 19.3982 19.7634 19.7626C19.399 20.127 18.7463 20.065 18.3054 19.6241L13.4133 14.732C13.4121 14.7309 13.411 14.7297 13.4099 14.7286C11.9544 15.8872 10.1419 16.5268 8.26341 16.5268C6.07182 16.5268 3.96999 15.6562 2.4203 14.1065C0.870607 12.5568 0 10.455 0 8.26341C0 6.07182 0.870607 3.96999 2.4203 2.4203Z" fill="#555555"/>
</svg>
