<svg width="12" height="11" viewBox="0 0 12 11" fill="none" xmlns="http://www.w3.org/2000/svg">
<path fill-rule="evenodd" clip-rule="evenodd" d="M5.04491 0.956823C4.09329 0.956823 3.18065 1.33485 2.50775 2.00775C1.83485 2.68065 1.45682 3.59329 1.45682 4.54491C1.45682 5.49653 1.83485 6.40917 2.50775 7.08207C3.18065 7.75497 4.09329 8.13299 5.04491 8.13299C5.99653 8.13299 6.90917 7.75497 7.58207 7.08207C8.25497 6.40917 8.63299 5.49653 8.63299 4.54491C8.63299 3.59329 8.25497 2.68065 7.58207 2.00775C6.90917 1.33485 5.99653 0.956823 5.04491 0.956823ZM1.83117 1.33117C2.68351 0.478837 3.83952 0 5.04491 0C6.25029 0 7.40631 0.478837 8.25864 1.33117C9.11098 2.18351 9.58982 3.33952 9.58982 4.54491C9.58982 5.57787 9.23817 6.57458 8.60117 7.37498C8.60186 7.37566 8.60254 7.37635 8.60323 7.37703L11.2939 10.0677C11.5364 10.3102 11.5705 10.6692 11.3701 10.8696C11.1697 11.07 10.8106 11.0359 10.5681 10.7934L7.87748 8.10278C7.87681 8.10211 7.87614 8.10145 7.87548 8.10078C7.07499 8.73803 6.07808 9.08982 5.04491 9.08982C3.83952 9.08982 2.68351 8.61098 1.83117 7.75864C0.978837 6.90631 0.5 5.75029 0.5 4.54491C0.5 3.33952 0.978837 2.18351 1.83117 1.33117Z" fill="#CBCBCB"/>
</svg>
