<svg width="24" height="24" viewBox="0 0 24 24" fill="none" xmlns="http://www.w3.org/2000/svg">
<g clip-path="url(#clip0)">
<mask id="path-1-inside-1" fill="white">
<path fill-rule="evenodd" clip-rule="evenodd" d="M9.91616 2.08761C7.8399 2.08761 5.84868 2.9124 4.38054 4.38054C2.9124 5.84868 2.08761 7.8399 2.08761 9.91616C2.08761 11.9924 2.9124 13.9836 4.38054 15.4518C5.84868 16.9199 7.8399 17.7447 9.91616 17.7447C11.9924 17.7447 13.9836 16.9199 15.4518 15.4518C16.9199 13.9836 17.7447 11.9924 17.7447 9.91616C17.7447 7.8399 16.9199 5.84868 15.4518 4.38054C13.9836 2.9124 11.9924 2.08761 9.91616 2.08761ZM2.90438 2.90438C4.76402 1.04474 7.28623 0 9.91616 0C12.5461 0 15.0683 1.04474 16.9279 2.90438C18.7876 4.76402 19.8323 7.28623 19.8323 9.91616C19.8323 12.1699 19.0651 14.3445 17.6753 16.0908C17.6767 16.0922 17.6781 16.0937 17.6796 16.0951L23.5501 21.9656C24.0791 22.4947 24.1536 23.278 23.7163 23.7153C23.279 24.1525 22.4957 24.0781 21.9666 23.5491L16.0961 17.6785C16.0947 17.6771 16.0934 17.6758 16.092 17.6744C14.3455 19.0648 12.1704 19.8323 9.91616 19.8323C7.28623 19.8323 4.76402 18.7876 2.90438 16.9279C1.04474 15.0683 0 12.5461 0 9.91616C0 7.28623 1.04474 4.76402 2.90438 2.90438Z"/>
</mask>
<path fill-rule="evenodd" clip-rule="evenodd" d="M9.91616 2.08761C7.8399 2.08761 5.84868 2.9124 4.38054 4.38054C2.9124 5.84868 2.08761 7.8399 2.08761 9.91616C2.08761 11.9924 2.9124 13.9836 4.38054 15.4518C5.84868 16.9199 7.8399 17.7447 9.91616 17.7447C11.9924 17.7447 13.9836 16.9199 15.4518 15.4518C16.9199 13.9836 17.7447 11.9924 17.7447 9.91616C17.7447 7.8399 16.9199 5.84868 15.4518 4.38054C13.9836 2.9124 11.9924 2.08761 9.91616 2.08761ZM2.90438 2.90438C4.76402 1.04474 7.28623 0 9.91616 0C12.5461 0 15.0683 1.04474 16.9279 2.90438C18.7876 4.76402 19.8323 7.28623 19.8323 9.91616C19.8323 12.1699 19.0651 14.3445 17.6753 16.0908C17.6767 16.0922 17.6781 16.0937 17.6796 16.0951L23.5501 21.9656C24.0791 22.4947 24.1536 23.278 23.7163 23.7153C23.279 24.1525 22.4957 24.0781 21.9666 23.5491L16.0961 17.6785C16.0947 17.6771 16.0934 17.6758 16.092 17.6744C14.3455 19.0648 12.1704 19.8323 9.91616 19.8323C7.28623 19.8323 4.76402 18.7876 2.90438 16.9279C1.04474 15.0683 0 12.5461 0 9.91616C0 7.28623 1.04474 4.76402 2.90438 2.90438Z" fill="#4A4A4A"/>
<path d="M4.38054 4.38054L4.23912 4.23912L4.38054 4.38054ZM4.38054 15.4518L4.23912 15.5932L4.38054 15.4518ZM15.4518 15.4518L15.5932 15.5932L15.4518 15.4518ZM15.4518 4.38054L15.5932 4.23912L15.4518 4.38054ZM2.90438 2.90438L2.76296 2.76296L2.90438 2.90438ZM16.9279 2.90438L16.7865 3.0458L16.9279 2.90438ZM17.6753 16.0908L17.5188 15.9663L17.4072 16.1066L17.5345 16.2328L17.6753 16.0908ZM16.092 17.6744L16.2339 17.5335L16.1076 17.4063L15.9674 17.5179L16.092 17.6744ZM2.90438 16.9279L3.0458 16.7865L2.90438 16.9279ZM4.52196 4.52196C5.95259 3.09133 7.89295 2.28761 9.91616 2.28761V1.88761C7.78686 1.88761 5.74477 2.73348 4.23912 4.23912L4.52196 4.52196ZM2.28761 9.91616C2.28761 7.89295 3.09133 5.95259 4.52196 4.52196L4.23912 4.23912C2.73348 5.74477 1.88761 7.78686 1.88761 9.91616H2.28761ZM4.52196 15.3104C3.09133 13.8797 2.28761 11.9394 2.28761 9.91616H1.88761C1.88761 12.0455 2.73348 14.0876 4.23912 15.5932L4.52196 15.3104ZM9.91616 17.5447C7.89295 17.5447 5.95259 16.741 4.52196 15.3104L4.23912 15.5932C5.74477 17.0989 7.78686 17.9447 9.91616 17.9447V17.5447ZM15.3104 15.3104C13.8797 16.741 11.9394 17.5447 9.91616 17.5447V17.9447C12.0455 17.9447 14.0876 17.0989 15.5932 15.5932L15.3104 15.3104ZM17.5447 9.91616C17.5447 11.9394 16.741 13.8797 15.3104 15.3104L15.5932 15.5932C17.0989 14.0876 17.9447 12.0455 17.9447 9.91616H17.5447ZM15.3104 4.52196C16.741 5.95259 17.5447 7.89295 17.5447 9.91616H17.9447C17.9447 7.78686 17.0989 5.74477 15.5932 4.23912L15.3104 4.52196ZM9.91616 2.28761C11.9394 2.28761 13.8797 3.09133 15.3104 4.52196L15.5932 4.23912C14.0876 2.73348 12.0455 1.88761 9.91616 1.88761V2.28761ZM9.91616 -0.2C7.23319 -0.2 4.6601 0.865807 2.76296 2.76296L3.0458 3.0458C4.86793 1.22366 7.33928 0.2 9.91616 0.2V-0.2ZM17.0694 2.76296C15.1722 0.865807 12.5991 -0.2 9.91616 -0.2V0.2C12.493 0.2 14.9644 1.22366 16.7865 3.0458L17.0694 2.76296ZM20.0323 9.91616C20.0323 7.23319 18.9665 4.6601 17.0694 2.76296L16.7865 3.0458C18.6087 4.86793 19.6323 7.33928 19.6323 9.91616H20.0323ZM17.8318 16.2154C19.2496 14.4338 20.0323 12.2153 20.0323 9.91616H19.6323C19.6323 12.1244 18.8806 14.2552 17.5188 15.9663L17.8318 16.2154ZM17.5345 16.2328C17.5359 16.2343 17.5371 16.2354 17.5381 16.2365L17.821 15.9536C17.8192 15.9519 17.8175 15.9502 17.8162 15.9488L17.5345 16.2328ZM17.5381 16.2365L23.4087 22.107L23.6915 21.8242L17.821 15.9536L17.5381 16.2365ZM23.4087 22.107C23.886 22.5844 23.91 23.2387 23.5749 23.5739L23.8577 23.8567C24.3971 23.3173 24.2723 22.4049 23.6915 21.8242L23.4087 22.107ZM23.5749 23.5739C23.2398 23.909 22.5854 23.885 22.1081 23.4076L21.8252 23.6905C22.406 24.2712 23.3183 24.3961 23.8577 23.8567L23.5749 23.5739ZM22.1081 23.4076L16.2375 17.5371L15.9547 17.8199L21.8252 23.6905L22.1081 23.4076ZM16.2375 17.5371C16.2365 17.536 16.2354 17.535 16.2339 17.5335L15.9501 17.8153C15.9513 17.8166 15.953 17.8183 15.9547 17.8199L16.2375 17.5371ZM9.91616 20.0323C12.2159 20.0323 14.4348 19.2493 16.2166 17.8309L15.9674 17.5179C14.2561 18.8803 12.1249 19.6323 9.91616 19.6323V20.0323ZM2.76296 17.0694C4.6601 18.9665 7.23319 20.0323 9.91616 20.0323V19.6323C7.33928 19.6323 4.86793 18.6087 3.0458 16.7865L2.76296 17.0694ZM-0.2 9.91616C-0.2 12.5991 0.865807 15.1722 2.76296 17.0694L3.0458 16.7865C1.22366 14.9644 0.2 12.493 0.2 9.91616H-0.2ZM2.76296 2.76296C0.865807 4.6601 -0.2 7.23319 -0.2 9.91616H0.2C0.2 7.33928 1.22366 4.86793 3.0458 3.0458L2.76296 2.76296Z" fill="white" mask="url(#path-1-inside-1)"/>
</g>
<defs>
<clipPath id="clip0">
<rect width="24.0012" height="24.0001" fill="white"/>
</clipPath>
</defs>
</svg>
