<svg width="24" height="14" viewBox="0 0 24 14" fill="none" xmlns="http://www.w3.org/2000/svg">
<path d="M0.275521 0.852208C0.449249 0.780876 0.726682 0.632606 1.0573 0.54333C1.38791 0.448894 1.83464 0.291876 2.29023 0.252397C2.75048 0.203721 3.27077 0.189365 3.83938 0.21718C4.39446 0.26294 4.95797 0.382274 5.56225 0.540414C6.16586 0.698105 6.71807 0.96055 7.30795 1.24767C7.88364 1.54466 8.40837 1.91522 8.93376 2.31876C9.43035 2.73553 9.90145 3.19694 10.3322 3.68751C10.734 4.19154 11.1333 4.71015 11.4408 5.26353C11.7579 5.8131 12.0314 6.37904 12.2293 6.95776C12.6525 8.10355 12.8211 9.28253 12.8389 10.3325C12.8373 10.8653 12.8063 11.3597 12.7411 11.8139C12.6842 12.2654 12.5725 12.6822 12.4863 13.0191C12.4515 13.1773 12.4026 13.3285 12.3542 13.4621C12.2694 13.2818 12.1772 13.0916 12.0744 12.8834C11.5636 11.8579 10.8191 10.5223 9.94843 9.27154C9.51477 8.64526 9.03902 8.04971 8.57523 7.51136C8.32948 7.25273 8.09194 7.00397 7.86769 6.76799C7.62659 6.54884 7.39902 6.34113 7.1905 6.15001C6.96426 5.97797 6.75818 5.8214 6.5747 5.68187C6.39876 5.53405 6.21461 5.44814 6.07656 5.35931C5.79514 5.19063 5.63449 5.0944 5.63449 5.0944C5.63449 5.0944 5.78761 5.20387 6.05463 5.39318C6.18448 5.49368 6.35887 5.59125 6.52263 5.75164C6.69237 5.90327 6.8836 6.07397 7.09278 6.26015C7.28446 6.46562 7.49165 6.68612 7.7108 6.9203C7.91245 7.16906 8.12562 7.43151 8.34544 7.70338C8.76026 8.26909 9.17729 8.88617 9.55267 9.53264C10.3085 10.8197 10.9316 12.1811 11.3509 13.2172C11.4688 13.509 11.568 13.7699 11.6534 14.0003C11.4739 13.9518 11.2458 13.9004 10.9999 13.8085C10.6879 13.6988 10.285 13.5857 9.89458 13.4245C9.49483 13.2697 9.06871 13.0869 8.63882 12.8787C8.20207 12.6737 7.77661 12.4328 7.34074 12.1793C6.90531 11.927 6.49293 11.6383 6.08321 11.3413C5.68523 11.0326 5.29013 10.7208 4.9316 10.3756C4.57728 10.0207 4.21941 9.68787 3.91006 9.30317C3.27388 8.56541 2.73186 7.77628 2.29023 6.94341C2.06044 6.55108 1.86943 6.09438 1.68218 5.68165C1.49272 5.27206 1.33185 4.8176 1.17164 4.40083C1.0101 3.99168 0.860744 3.57715 0.728897 3.17339C0.585527 2.75752 0.460328 2.39503 0.356401 2.09714C0.236521 1.80082 0.161623 1.49105 0.094038 1.30868C0.0317707 1.10276 -0.000137329 0.993973 -0.000137329 0.993973C-0.000137329 0.993973 0.0964756 0.934754 0.275521 0.852208Z" fill="#908A8A"/>
<path d="M14.3743 10.0712C14.993 9.63197 15.5807 9.15014 16.1127 8.68021C16.3675 8.43302 16.6135 8.19188 16.8471 7.96488C17.064 7.72083 17.2679 7.49046 17.4582 7.27938C17.6277 7.05126 17.782 6.84085 17.9205 6.65602C18.0665 6.47769 18.1502 6.29151 18.2387 6.15176C18.4057 5.86756 18.5006 5.70426 18.5006 5.70426C18.5006 5.70426 18.3924 5.85926 18.2045 6.12956C18.1068 6.26078 18.0098 6.43709 17.8504 6.60285C17.7006 6.77535 17.5322 6.96893 17.3481 7.18068C17.1456 7.37404 16.9273 7.58444 16.6959 7.80539C16.4506 8.00952 16.1905 8.22531 15.9224 8.44782C15.3642 8.86617 14.7539 9.28989 14.1157 9.66988C13.8516 9.82959 13.5839 9.97001 13.3171 10.1142C13.2289 8.66967 12.936 7.2417 12.4974 5.94113C12.7487 5.61229 13.0036 5.28861 13.2839 4.99229C13.6342 4.63295 13.9617 4.27068 14.3431 3.95799C15.0723 3.31399 15.851 2.76555 16.6736 2.31782C17.0611 2.08521 17.5129 1.89185 17.9207 1.70253C18.3244 1.51074 18.7729 1.34722 19.1849 1.18594C19.5895 1.02309 19.9985 0.87235 20.3978 0.738885C20.8085 0.592633 21.1657 0.465896 21.461 0.360694C21.7538 0.240014 22.0604 0.163524 22.2399 0.0951083C22.4425 0.0329738 22.5504 0 22.5504 0C22.5504 0 22.6104 0.0989219 22.6926 0.279942C22.7625 0.455354 22.9091 0.736642 22.9978 1.07132C23.0906 1.40487 23.2462 1.85731 23.2841 2.31872C23.333 2.78506 23.347 3.31242 23.3189 3.88778C23.275 4.44923 23.1573 5.01876 23.0007 5.63136C22.8438 6.24194 22.5852 6.8016 22.302 7.39916C22.0082 7.98036 21.6425 8.51153 21.2426 9.04427C20.8311 9.54785 20.3752 10.0245 19.8908 10.4612C19.3938 10.8666 18.8804 11.271 18.3328 11.5835C17.791 11.9045 17.2317 12.1815 16.6603 12.3811C15.5288 12.8102 14.3641 12.9807 13.326 12.9991C13.2817 12.9991 13.2438 12.9944 13.2017 12.9931C13.3127 12.2569 13.353 11.5054 13.3393 10.7508C13.6838 10.5317 14.03 10.3168 14.3743 10.0712Z" fill="#908A8A"/>
</svg>
