<svg width="21" height="14" viewBox="0 0 21 14" fill="none" xmlns="http://www.w3.org/2000/svg">
<path fill-rule="evenodd" clip-rule="evenodd" d="M20.8611 6.94914L19.627 5.42073L19.6282 5.42017L17.6429 1.6232C17.5304 1.40833 17.3016 1.27277 17.0515 1.27277H14.228V0.636351C14.228 0.284847 13.9317 0 13.5662 0H2.53682C2.17128 0 1.87507 0.284887 1.87507 0.636351C1.87507 0.987815 2.17133 1.2727 2.53682 1.2727H12.9045V5.72728C12.9045 6.07878 13.2007 6.36363 13.5662 6.36363H18.7128L19.6765 7.55745V10.8394H18.4292C18.1424 9.73201 17.0994 8.90906 15.8602 8.90906C14.6211 8.90906 13.5781 9.73205 13.2913 10.8395H9.3852C9.09841 9.73205 8.05541 8.90906 6.81624 8.90906C5.57708 8.90906 4.53408 9.73205 4.24729 10.8395H2.53682C2.17128 10.8395 1.87507 11.1244 1.87507 11.4758C1.87507 11.8274 2.17133 12.1122 2.53682 12.1122H4.25874C4.56096 13.1981 5.59303 14 6.81624 14C8.03945 14 9.0715 13.1981 9.37374 12.1122H13.3027C13.605 13.1981 14.637 14 15.8602 14C17.0837 14 18.1156 13.198 18.4178 12.1121H20.3382C20.7038 12.1121 21 11.8272 21 11.4758V7.33945C21 7.19817 20.9511 7.06072 20.8611 6.94914ZM16.6434 2.54551L17.9742 5.09093H14.228V2.54551H16.6434ZM6.81624 12.7273C6.08633 12.7273 5.49271 12.1564 5.49271 11.4545C5.49271 10.7526 6.08633 10.1818 6.81624 10.1818C7.54595 10.1818 8.13978 10.7526 8.13978 11.4545C8.13978 12.1565 7.54616 12.7273 6.81624 12.7273ZM15.8602 12.7273C15.1303 12.7273 14.5367 12.1564 14.5367 11.4545C14.5367 10.7526 15.1303 10.1818 15.8602 10.1818C16.5902 10.1818 17.1838 10.7526 17.1838 11.4545C17.1838 12.1565 16.5902 12.7273 15.8602 12.7273ZM1.74253 7.61528H4.78667C5.15216 7.61528 5.44841 7.90017 5.44837 8.25163C5.44837 8.6031 5.15216 8.88799 4.78663 8.88799H1.74253C1.37704 8.88799 1.08078 8.60314 1.08078 8.25163C1.08078 7.90017 1.377 7.61528 1.74253 7.61528ZM6.30882 5.11216H0.661746C0.296256 5.11216 0 5.39704 0 5.74855C0 6.10005 0.296256 6.3849 0.661746 6.3849H6.30882C6.67435 6.3849 6.97056 6.10001 6.97056 5.74855C6.97056 5.39708 6.67435 5.11216 6.30882 5.11216ZM1.74253 2.60919H7.3896C7.75513 2.60919 8.05139 2.89408 8.05135 3.24554C8.05135 3.59701 7.75513 3.8819 7.3896 3.8819H1.74253C1.37704 3.8819 1.08078 3.59705 1.08078 3.24554C1.08078 2.89408 1.377 2.60919 1.74253 2.60919Z" fill="#908A8A"/>
</svg>
